<svg width="409" height="425" viewBox="0 0 409 425" fill="none" xmlns="http://www.w3.org/2000/svg">
<path d="M146.641 141.201C146.476 141.201 146.279 141.149 146.052 141.046C145.535 140.943 145.06 140.715 144.626 140.364C144.192 140.013 143.768 139.651 143.355 139.279C142.962 138.928 142.766 138.504 142.766 138.008C142.766 137.905 142.859 137.646 143.045 137.233C143.293 137.047 143.593 136.954 143.944 136.954H144.13L145.928 138.287C146.259 137.626 146.527 137.037 146.734 136.52C146.961 135.983 147.075 135.321 147.075 134.536H143.231L142.766 134.567C142.125 134.567 141.805 134.35 141.805 133.916C141.805 133.441 141.929 132.542 142.177 131.219C142.446 129.896 142.621 128.966 142.704 128.429C142.787 127.871 143.004 127.561 143.355 127.499L143.696 127.468C144.295 127.468 145.608 127.571 147.633 127.778L147.881 125.577H144.037L143.417 125.298C143.21 125.05 143.107 124.74 143.107 124.368V124.182L143.417 123.593L144.192 123.221H149.431C150.175 123.221 150.557 123.376 150.578 123.686C150.578 124.017 150.475 124.895 150.268 126.321C150.082 127.726 149.948 128.698 149.865 129.235C149.803 129.772 149.576 130.051 149.183 130.072H148.904C148.284 130.072 146.92 130.031 144.812 129.948L144.378 132.18C147.023 132.18 148.646 132.221 149.245 132.304C149.638 132.366 149.834 132.604 149.834 133.017C149.834 133.224 149.782 133.472 149.679 133.761C149.348 136.344 148.584 138.597 147.385 140.519C147.24 140.974 146.992 141.201 146.641 141.201ZM152.717 141.356C151.911 141.253 151.508 140.808 151.508 140.023V139.837L151.818 139.248C153.182 138.773 154.35 138.225 155.321 137.605L153.864 136.396C153.616 136.107 153.492 135.766 153.492 135.373V135.218L153.802 134.598C154.05 134.412 154.35 134.319 154.701 134.319C154.949 134.319 155.838 134.825 157.367 135.838C157.946 135.053 158.39 134.278 158.7 133.513H153.492L152.903 133.203C152.696 132.934 152.593 132.614 152.593 132.242V132.056L152.903 131.467L153.492 131.157L157.429 131.126C159.62 131.126 160.932 131.157 161.366 131.219C161.8 131.281 162.017 131.498 162.017 131.87C162.017 132.531 161.18 134.278 159.506 137.109C160.209 137.502 161.604 138.111 163.691 138.938C163.898 139.186 164.001 139.486 164.001 139.837V140.023L163.691 140.643C163.422 140.85 163.112 140.953 162.761 140.953L162.42 140.922C161.221 140.591 159.62 139.889 157.615 138.814C156.52 139.62 155.621 140.199 154.918 140.55C154.215 140.922 153.482 141.191 152.717 141.356ZM152.872 130.506H152.717L152.097 130.196C151.911 129.948 151.818 129.648 151.818 129.297V129.111C152.169 128.491 152.448 127.84 152.655 127.158C152.862 126.476 152.975 125.577 152.996 124.461L152.965 123.965C152.965 123.448 153.12 123.159 153.43 123.097C153.74 123.035 154.825 123.004 156.685 123.004L160.033 123.035C160.591 123.035 160.87 123.262 160.87 123.717C160.87 123.841 160.849 123.986 160.808 124.151C160.663 124.647 160.591 125.112 160.591 125.546C160.591 125.773 160.622 126.094 160.684 126.507C160.767 126.9 161.097 127.261 161.676 127.592C162.255 127.902 162.947 128.16 163.753 128.367C163.96 128.615 164.063 128.915 164.063 129.266V129.452L163.753 130.072C163.402 130.32 162.988 130.444 162.513 130.444H162.296C161.077 130.258 160.116 129.783 159.413 129.018C158.628 128.212 158.235 127.148 158.235 125.825V125.453L155.197 125.515C155.197 127.292 154.773 128.811 153.926 130.072C153.637 130.361 153.285 130.506 152.872 130.506ZM140.813 124.244C140.048 124.141 139.666 123.727 139.666 123.004V122.818L139.976 122.198C141.34 121.661 142.342 121.206 142.983 120.834L141.774 119.811C141.588 119.522 141.495 119.201 141.495 118.85C141.495 118.747 141.588 118.478 141.774 118.044C142.022 117.837 142.322 117.734 142.673 117.734H142.859C143.706 118.189 144.605 118.778 145.556 119.501L148.408 117.517L145.866 117.579C145.081 117.476 144.688 117.052 144.688 116.308V116.122L144.998 115.502C145.515 115.233 146.062 115.099 146.641 115.099L149.648 115.13L152.779 115.099C153.296 115.099 153.719 115.233 154.05 115.502C154.401 115.75 155.331 116.339 156.84 117.269L158.638 115.254L159.506 115.192L160.095 115.502C160.302 115.75 160.405 116.05 160.405 116.401V116.587L160.095 117.207L159.01 118.54L160.281 119.129L161.955 116.773C162.203 116.546 162.513 116.432 162.885 116.432L163.164 116.463L163.753 116.773C163.96 117.021 164.063 117.321 164.063 117.672V117.858L162.482 120.245C163.019 120.431 164.135 120.875 165.83 121.578C166.016 121.826 166.109 122.126 166.109 122.477V122.694L165.83 123.283C165.582 123.51 165.282 123.624 164.931 123.624L164.621 123.593C162.513 122.911 160.488 122.033 158.545 120.958C156.602 119.863 154.639 118.829 152.655 117.858C150.712 118.995 148.801 120.183 146.92 121.423C145.039 122.663 143.004 123.603 140.813 124.244ZM172.03 142.069L171.224 142.038C170.439 141.935 170.046 141.511 170.046 140.767V140.581L170.356 139.961C171.658 139.796 172.95 139.61 174.231 139.403C175.512 139.217 176.587 138.773 177.455 138.07C178.323 137.367 178.871 136.665 179.098 135.962H177.331C176.732 135.962 176.184 135.817 175.688 135.528C175.399 134.226 175.223 132.883 175.161 131.498C175.12 130.093 175.078 128.708 175.037 127.344C175.078 127.013 175.192 126.734 175.378 126.507L176.029 126.197C184.378 126.197 188.935 126.187 189.7 126.166H189.824C190.547 126.166 191.209 126.321 191.808 126.631C192.015 127.106 192.118 127.613 192.118 128.15V128.553C192.118 129.359 192.19 131.136 192.335 133.885V134.133C192.335 134.712 192.211 135.249 191.963 135.745C191.736 135.931 191.436 136.024 191.064 136.024L187.592 135.962C187.633 136.727 187.654 137.326 187.654 137.76V138.194C187.654 138.607 187.83 138.845 188.181 138.907C188.698 138.99 189.452 139.031 190.444 139.031C191.333 139.031 192.79 139 194.815 138.938C194.815 138.173 194.98 137.491 195.311 136.892C195.559 136.685 195.859 136.582 196.21 136.582H196.396L197.016 136.892C197.223 137.119 197.326 137.409 197.326 137.76L197.171 139.062L197.295 140.271L197.016 140.891C196.313 141.16 195.559 141.294 194.753 141.294C193.947 141.294 192.738 141.304 191.126 141.325H190.196C189.059 141.325 188.191 141.284 187.592 141.201C187.013 141.139 186.497 140.87 186.042 140.395C185.587 139.94 185.329 139.403 185.267 138.783C185.246 138.514 185.236 138.184 185.236 137.791C185.236 137.274 185.257 136.644 185.298 135.9H181.578C181.475 136.479 181.309 137.016 181.082 137.512C180.855 137.987 180.235 138.68 179.222 139.589C177.424 141.242 175.027 142.069 172.03 142.069ZM189.886 134.195V133.699L189.948 133.327L177.672 133.265L177.703 134.195H189.886ZM189.948 131.591V130.661H177.61V131.529L189.948 131.591ZM177.424 128.925L189.7 128.863V127.964H177.424V128.925ZM171.689 128.739C171.379 128.698 171.1 128.574 170.852 128.367C170.521 127.726 170.356 127.024 170.356 126.259C170.356 125.494 170.315 124.75 170.232 124.027C170.273 123.696 170.397 123.407 170.604 123.159C171.059 122.849 171.586 122.694 172.185 122.694C172.412 122.694 172.65 122.715 172.898 122.756L172.774 115.44L173.084 114.851C174.014 114.644 174.944 114.427 175.874 114.2C176.825 113.973 177.786 113.828 178.757 113.766C179.026 113.869 179.222 114.066 179.346 114.355V114.851C179.222 115.12 179.026 115.316 178.757 115.44L175.13 116.184V116.835H178.509C178.798 116.959 178.995 117.166 179.098 117.455V117.982C178.995 118.271 178.798 118.478 178.509 118.602H175.192V119.749L178.261 119.687C178.55 119.811 178.757 120.018 178.881 120.307V120.803C178.757 121.092 178.55 121.299 178.261 121.423L175.254 121.547V122.818L180.493 122.632C180.369 122.384 180.307 122.115 180.307 121.826V121.702C180.431 121.433 180.638 121.237 180.927 121.113L182.012 120.493L181.113 119.997C180.989 119.832 180.927 119.625 180.927 119.377C180.927 119.274 180.989 119.077 181.113 118.788L180.834 118.819C180.545 118.819 180.297 118.705 180.09 118.478C179.966 118.313 179.904 118.106 179.904 117.858C179.904 117.527 180.1 117.269 180.493 117.083L182.074 116.308C181.557 116.06 181.154 115.688 180.865 115.192V114.727C180.989 114.438 181.196 114.231 181.485 114.107H182.012C182.611 114.603 183.262 114.965 183.965 115.192C184.771 114.634 185.536 113.993 186.259 113.27H186.724C187.013 113.394 187.22 113.59 187.344 113.859V114.417C186.91 115.016 186.424 115.585 185.887 116.122L187.034 116.773C187.158 116.938 187.22 117.145 187.22 117.393V117.579L186.91 118.106C187.199 118.23 187.406 118.437 187.53 118.726V119.191C187.117 119.687 186.631 120.08 186.073 120.369L187.034 121.051C187.158 121.216 187.22 121.413 187.22 121.64C187.22 121.991 187.024 122.26 186.631 122.446H186.073L183.965 121.547L182.26 122.632L191.684 122.756V121.423L188.863 121.485L188.181 121.113C188.078 120.948 188.026 120.751 188.026 120.524V120.307L188.615 119.625H191.684V118.726L188.677 118.788L188.026 118.416C187.902 118.251 187.84 118.054 187.84 117.827C187.84 117.476 188.036 117.207 188.429 117.021L191.622 116.835V115.812L188.305 115.936C188.036 115.812 187.84 115.605 187.716 115.316V114.851C187.84 114.562 188.036 114.355 188.305 114.231L193.141 114.045L193.73 114.355C193.957 114.686 194.071 115.047 194.071 115.44L194.04 115.812V122.756C194.929 122.756 195.755 122.932 196.52 123.283C196.768 123.903 196.892 124.564 196.892 125.267C196.892 126.466 196.706 127.385 196.334 128.026C196.086 128.212 195.786 128.305 195.435 128.305C195.332 128.305 195.063 128.212 194.629 128.026C194.443 127.695 194.329 127.344 194.288 126.972L194.474 125.174L172.65 125.112C172.691 126.187 172.774 127.075 172.898 127.778L172.588 128.367C172.319 128.574 172.02 128.698 171.689 128.739ZM184.244 119.315L186.011 118.168C185.37 117.817 184.688 117.538 183.965 117.331C183.304 117.806 182.591 118.168 181.826 118.416C182.591 118.788 183.397 119.088 184.244 119.315ZM208.238 141.728H208.052L207.432 141.418C207.163 141.025 207.029 140.56 207.029 140.023V135.187C205.913 136.2 204.807 137.533 203.712 139.186C203.443 139.434 203.061 139.558 202.565 139.558L201.976 139.248C201.769 139 201.666 138.638 201.666 138.163C202.265 137.026 203.02 135.962 203.929 134.97C204.838 133.957 205.593 132.893 206.192 131.777L202.937 131.715C202.42 131.715 201.955 131.57 201.542 131.281C201.335 131.033 201.232 130.671 201.232 130.196L201.542 129.576C201.852 129.369 202.224 129.266 202.658 129.266C202.927 129.287 204.384 129.328 207.029 129.39L206.905 127.158L202.317 127.344C201.552 127.241 201.17 126.755 201.17 125.887L201.48 125.298C201.976 125.05 202.524 124.926 203.123 124.926C203.35 124.926 203.588 124.947 203.836 124.988L203.65 120.679L201.728 120.865L200.984 120.493C200.798 120.245 200.705 119.873 200.705 119.377L200.984 118.788C201.769 118.457 202.606 118.282 203.495 118.261C204.384 118.24 205.262 118.209 206.13 118.168L205.913 115.13C206.016 114.365 206.512 113.983 207.401 113.983L207.99 114.293C208.279 114.768 208.424 115.295 208.424 115.874C208.424 116.825 208.465 117.527 208.548 117.982H212.423L213.198 118.354C213.405 118.602 213.508 118.964 213.508 119.439L213.198 120.059C212.847 120.307 212.454 120.431 212.02 120.431C211.855 120.431 211.679 120.41 211.493 120.369L211.431 124.74H214.159L214.779 125.05C214.986 125.277 215.089 125.639 215.089 126.135L214.779 126.724C214.49 126.931 214.18 127.055 213.849 127.096H209.261L209.385 129.39H213.849L214.469 129.7C214.676 129.948 214.779 130.31 214.779 130.785L214.469 131.405C214.18 131.612 213.88 131.736 213.57 131.777H210.16L214.283 135.497C214.49 135.724 214.593 136.086 214.593 136.582L214.283 137.171C214.014 137.378 213.632 137.481 213.136 137.481L212.547 137.171L209.447 134.567V140.829L209.137 141.418C208.889 141.625 208.589 141.728 208.238 141.728ZM224.854 141.852H224.668L224.079 141.542C223.748 140.323 223.583 139.062 223.583 137.76C223.583 136.437 223.438 132.335 223.149 125.453H218.902C218.902 131.55 218.83 135.363 218.685 136.892C218.54 138.421 218.148 139.868 217.507 141.232C217.259 141.439 216.897 141.542 216.422 141.542L215.802 141.232C215.595 140.963 215.492 140.581 215.492 140.085C215.947 138.886 216.226 137.626 216.329 136.303C216.432 134.588 216.484 131.663 216.484 127.53C216.484 124.182 216.339 121.547 216.05 119.625L216.019 119.284C216.019 118.809 216.184 118.457 216.515 118.23C217.776 117.631 219.119 117.186 220.545 116.897C221.971 116.608 223.387 116.329 224.792 116.06L225.412 116.37C225.598 116.597 225.691 116.959 225.691 117.455L225.412 118.044C224.317 118.457 223.18 118.778 222.002 119.005C220.824 119.212 219.687 119.501 218.592 119.873L218.778 123.097H227.086L227.706 123.407C227.913 123.655 228.016 124.017 228.016 124.492L227.706 125.112C227.231 125.381 226.704 125.515 226.125 125.515C225.918 125.515 225.712 125.494 225.505 125.453L226.063 140.922L225.753 141.542C225.526 141.749 225.226 141.852 224.854 141.852ZM209.013 124.74L209.137 120.369L206.037 120.555L206.316 124.74H209.013ZM252.599 141.759H252.444C251.597 141.511 250.563 140.86 249.344 139.806C249.137 139.579 249.034 139.217 249.034 138.721L249.344 138.132C249.592 137.925 249.954 137.822 250.429 137.822C251.008 138.173 251.576 138.535 252.134 138.907C252.899 137.688 253.529 136.355 254.025 134.908C251.669 134.825 250.233 134.701 249.716 134.536C249.323 134.433 249.127 134.195 249.127 133.823C249.127 133.699 249.179 133.451 249.282 133.079C249.406 132.686 249.52 132.201 249.623 131.622C249.726 131.023 249.871 130.444 250.057 129.886L245.717 129.948C245.469 130.837 245.159 131.684 244.787 132.49C244.436 133.296 243.816 134.278 242.927 135.435C242.059 136.572 241.17 137.615 240.261 138.566C239.372 139.496 238.442 139.982 237.471 140.023L236.851 139.713C236.644 139.486 236.541 139.124 236.541 138.628L236.851 138.039C237.636 137.75 238.401 137.181 239.145 136.334C239.889 135.466 240.664 134.515 241.47 133.482C242.276 132.449 242.844 131.312 243.175 130.072L238.928 130.134C238.163 130.031 237.781 129.545 237.781 128.677L238.091 128.057L238.68 127.778L252.444 127.468C253.085 127.737 253.405 128.098 253.405 128.553C253.405 128.698 252.899 129.989 251.886 132.428C254.366 132.593 255.906 132.759 256.505 132.924C256.856 133.027 257.032 133.265 257.032 133.637C257.032 133.926 256.877 134.443 256.567 135.187C256.257 135.91 255.854 136.83 255.358 137.946C254.883 139.041 254.428 139.951 253.994 140.674C253.581 141.397 253.116 141.759 252.599 141.759ZM236.417 127.282L235.828 126.972C235.621 126.745 235.518 126.383 235.518 125.887L235.859 125.236C236.851 124.699 237.843 124.172 238.835 123.655C239.827 123.118 240.809 122.549 241.78 121.95L235.146 121.826C234.299 121.826 233.513 121.671 232.79 121.361C232.583 121.113 232.48 120.751 232.48 120.276L232.79 119.625C233.1 119.377 233.472 119.253 233.906 119.253C234.071 119.253 234.247 119.274 234.433 119.315H244.384L244.26 116.959C241.842 117.248 240.065 117.527 238.928 117.796L238.339 117.517C238.132 117.269 238.029 116.897 238.029 116.401L238.339 115.812C240.261 115.171 242.255 114.748 244.322 114.541C246.409 114.334 248.507 114.21 250.615 114.169L251.235 114.479C251.421 114.727 251.514 115.027 251.514 115.378C251.514 115.481 251.421 115.75 251.235 116.184C250.532 116.453 249.778 116.587 248.972 116.587C248.166 116.587 247.381 116.608 246.616 116.649L246.74 119.253L257.125 119.439L257.745 119.749C257.931 120.018 258.024 120.328 258.024 120.679C258.024 120.782 257.931 121.051 257.745 121.485C257.456 121.671 257.146 121.785 256.815 121.826L250.429 121.64C251.359 122.177 252.299 122.632 253.25 123.004C254.221 123.355 255.172 123.738 256.102 124.151C256.309 124.378 256.412 124.74 256.412 125.236L256.102 125.825C255.813 126.052 255.492 126.166 255.141 126.166C254.5 126.104 253.074 125.567 250.863 124.554C249.561 123.955 248.249 123.407 246.926 122.911L247.112 126.197L246.802 126.786C246.554 126.993 246.192 127.096 245.717 127.096L245.097 126.786C244.828 126.228 244.673 125.608 244.632 124.926C244.591 124.244 244.57 123.552 244.57 122.849C241.925 124.812 239.207 126.29 236.417 127.282Z" fill="#1D1D1F"/>
<path d="M293.184 294.838H290.58C289.898 294.735 289.536 294.476 289.495 294.063C289.474 293.856 289.464 293.288 289.464 292.358L289.495 288.452L288.565 290.033C288.296 290.281 287.914 290.405 287.418 290.405L286.829 290.095C286.622 289.847 286.519 289.547 286.519 289.196C286.519 289.01 287.253 287.264 288.72 283.957C289.464 282.283 290.177 280.588 290.859 278.873H288.255C287.49 278.77 287.108 278.284 287.108 277.416L287.418 276.796L288.038 276.517L297.276 276.455L297.865 276.734C298.072 277.023 298.175 277.416 298.175 277.912L297.865 278.501L297.276 278.811H293.432C293.246 279.514 292.988 280.196 292.657 280.857C292.347 281.498 292.099 282.159 291.913 282.841L297.028 282.779C297.751 282.8 298.113 283.079 298.113 283.616C298.072 283.864 298.01 287.078 297.927 293.257C297.865 294.104 297.596 294.59 297.121 294.714C296.77 294.797 295.457 294.838 293.184 294.838ZM295.509 292.451L295.695 285.135L291.727 285.197L291.851 292.327L295.509 292.451ZM300.748 300.201C300.149 300.201 299.787 299.23 299.663 297.287C299.518 295.2 299.446 289.578 299.446 280.423C299.446 278.811 299.456 277.809 299.477 277.416C299.518 277.003 299.694 276.744 300.004 276.641C300.335 276.517 301.678 276.248 304.034 275.835C306.411 275.422 308.508 275.07 310.327 274.781L310.885 275.091C311.071 275.298 311.164 275.649 311.164 276.145L310.885 276.703C310.182 277.034 309.418 277.24 308.591 277.323C307.785 277.406 307.01 277.54 306.266 277.726C306.411 280.103 306.721 282.51 307.196 284.949L309.583 285.011L310.141 284.98C310.844 284.98 311.484 285.104 312.063 285.352C312.249 285.641 312.342 286.013 312.342 286.468L312.063 287.057C311.484 287.305 310.875 287.429 310.234 287.429C309.986 287.429 309.738 287.408 309.49 287.367L307.785 287.305C308.694 290.384 309.914 293.288 311.443 296.016L311.939 295.334C312.166 295.148 312.507 295.055 312.962 295.055L313.52 295.334C313.706 295.623 313.799 295.995 313.799 296.45C313.613 296.987 313.458 297.504 313.334 298C313.231 298.496 313.034 299.002 312.745 299.519C312.621 299.746 312.445 299.86 312.218 299.86C311.929 299.86 311.557 299.695 311.102 299.364C308.705 296.202 306.834 292.182 305.491 287.305L301.678 287.181L301.833 296.76C302.432 296.264 303.073 295.995 303.755 295.954L304.282 296.233C304.468 296.46 304.561 296.822 304.561 297.318L304.282 297.876C302.298 299.426 301.12 300.201 300.748 300.201ZM304.964 285.011L304.747 283.275C304.375 281.043 304.158 279.328 304.096 278.129L301.616 278.687L301.678 284.887L304.964 285.011ZM307.196 299.085C306.865 299.064 306.555 298.951 306.266 298.744C305.377 297.215 304.778 295.985 304.468 295.055C304.489 294.683 304.654 294.342 304.964 294.032L305.522 293.722C305.915 293.763 306.256 293.949 306.545 294.28C307.413 295.995 307.981 297.163 308.25 297.783C308.229 298.155 308.064 298.496 307.754 298.806L307.196 299.085ZM344.706 300.232C344.582 300.232 344.417 300.191 344.21 300.108L343.249 299.643C342.753 299.147 342.474 298.558 342.412 297.876C342.515 297.587 342.712 297.39 343.001 297.287H343.621L343.683 292.575H339.901L339.87 294.9H340.521C340.438 294.652 340.397 294.404 340.397 294.156C340.397 293.743 340.604 293.464 341.017 293.319H341.544C341.833 293.422 342.04 293.619 342.164 293.908C342.639 294.735 342.918 295.634 343.001 296.605C342.877 296.894 342.681 297.101 342.412 297.225H341.916L341.358 296.729L336.367 296.791L335.716 296.419C335.592 296.254 335.53 296.057 335.53 295.83C335.53 295.479 335.726 295.21 336.119 295.024L338.072 294.962L338.134 292.575H335.096L335.468 299.085C335.344 299.374 335.137 299.581 334.848 299.705H334.321C334.032 299.581 333.825 299.374 333.701 299.085L333.298 291.614C333.339 291.056 333.68 290.777 334.321 290.777L338.134 290.839V289.258H335.406L335.127 289.289C334.776 289.289 334.579 289.113 334.538 288.762C334.497 288.39 334.321 286.334 334.011 282.593L333.98 282.19C333.98 281.673 334.094 281.394 334.321 281.353C334.383 281.332 334.6 281.322 334.972 281.322C336.253 281.322 339.291 281.405 344.086 281.57C344.375 281.694 344.582 281.89 344.706 282.159L344.52 288.111C344.499 288.979 344.272 289.413 343.838 289.413L339.901 289.258V290.839H344.272C344.437 290.798 344.592 290.777 344.737 290.777C345.192 290.777 345.419 291.004 345.419 291.459V291.49C345.295 296.636 345.202 299.416 345.14 299.829C345.099 300.098 344.954 300.232 344.706 300.232ZM329.454 299.891H329.361L328.741 299.581C328.534 299.333 328.431 299.033 328.431 298.682V298.496C329.092 296.719 329.506 294.869 329.671 292.947C329.898 290.033 330.012 287.047 330.012 283.988C330.012 281.921 329.971 279.307 329.888 276.145V275.959C329.888 274.988 330.229 274.502 330.911 274.502H343.311C344.034 274.502 344.696 274.647 345.295 274.936C345.502 275.184 345.605 275.484 345.605 275.835V276.021L345.295 276.641C344.985 276.868 344.613 276.982 344.179 276.982L332.368 276.858L332.399 281.384C332.399 283.43 332.368 285.435 332.306 287.398C332.265 289.361 332.151 291.387 331.965 293.474C331.8 295.561 331.314 297.576 330.508 299.519C330.198 299.767 329.847 299.891 329.454 299.891ZM328.338 296.822H327.873C326.984 296.822 324.949 296.791 321.766 296.729L321.332 296.76C320.919 296.76 320.681 296.615 320.619 296.326C320.557 296.037 320.516 294.404 320.495 291.428C320.164 292.151 319.854 292.854 319.565 293.536C319.338 293.743 319.038 293.846 318.666 293.846H318.48L317.891 293.536C317.664 293.288 317.55 292.988 317.55 292.637L317.581 292.327C318.759 289.124 319.927 284.846 321.084 279.493L318.79 279.555C318.459 279.514 318.18 279.4 317.953 279.214C317.746 278.904 317.643 278.563 317.643 278.191V278.005L317.953 277.416L318.542 277.106L327.284 276.982L327.904 277.292C328.111 277.54 328.214 277.84 328.214 278.191V278.377L327.904 278.997C327.615 279.204 327.305 279.328 326.974 279.369L323.502 279.431L322.603 283.492L327.904 283.368C328.503 283.368 328.803 283.678 328.803 284.298L328.741 295.458C328.782 295.685 328.803 295.892 328.803 296.078C328.803 296.574 328.648 296.822 328.338 296.822ZM326.385 294.466L326.447 285.724L322.727 285.848L322.913 294.342L326.385 294.466ZM342.753 287.553V286.096L339.963 285.972V287.491L342.753 287.553ZM338.196 287.491V285.972L336.026 286.034L336.119 287.491H338.196ZM342.815 284.36L342.877 283.306L339.963 283.244V284.236L342.815 284.36ZM335.902 284.298L338.196 284.236V283.182H335.778L335.902 284.298ZM336.925 281.322L336.243 280.95C336.016 280.599 335.902 280.175 335.902 279.679H333.887L333.236 279.307C333.112 279.142 333.05 278.935 333.05 278.687C333.05 278.315 333.246 278.057 333.639 277.912L335.778 277.85L336.057 277.292C336.222 277.168 336.429 277.106 336.677 277.106H336.863L337.452 277.788L341.017 277.85C341.017 277.271 341.348 276.982 342.009 276.982C342.36 276.982 342.629 277.189 342.815 277.602V277.85C343.063 277.809 343.311 277.788 343.559 277.788C344.138 277.788 344.675 277.902 345.171 278.129C345.295 278.294 345.357 278.501 345.357 278.749C345.357 279.1 345.161 279.369 344.768 279.555L342.567 279.617C342.526 280.154 342.371 280.64 342.102 281.074C341.937 281.198 341.73 281.26 341.482 281.26C341.151 281.26 340.893 281.053 340.707 280.64L340.769 279.617L337.638 279.555L337.886 280.578C337.741 280.971 337.421 281.219 336.925 281.322ZM372.327 300.449L371.955 300.418C368.524 298.641 365.393 296.719 362.562 294.652C359.875 296.698 358.046 298.031 357.075 298.651C356.124 299.271 355.101 299.746 354.006 300.077C353.675 300.015 353.376 299.891 353.107 299.705C352.921 299.436 352.828 299.075 352.828 298.62L353.169 298C354.554 297.483 355.835 296.75 357.013 295.799C358.212 294.848 359.421 293.96 360.64 293.133C358.801 291.48 357.168 290.105 355.742 289.01C355.535 288.7 355.432 288.318 355.432 287.863L355.773 287.243C356 287.057 356.269 286.964 356.579 286.964L356.858 286.995C358.759 288.483 360.03 289.496 360.671 290.033C361.312 290.55 361.942 291.035 362.562 291.49C363.533 290.581 364.484 289.682 365.414 288.793C366.344 287.904 367.16 287.005 367.863 286.096L368.576 286.065L369.227 286.375C369.413 286.664 369.506 287.057 369.506 287.553C369.051 288.297 368.493 289.01 367.832 289.692C367.171 290.374 366.106 291.459 364.639 292.947C367.408 295.117 370.291 296.956 373.288 298.465C373.453 298.692 373.536 299.054 373.536 299.55L373.226 300.139C372.957 300.346 372.658 300.449 372.327 300.449ZM352.146 289.289H351.929L351.371 288.948C351.164 288.659 351.061 288.276 351.061 287.801C351.702 286.809 352.332 285.796 352.952 284.763C353.572 283.709 354.264 282.696 355.029 281.725C355.298 281.456 355.68 281.322 356.176 281.322L356.765 281.663C356.951 281.932 357.044 282.314 357.044 282.81C354.977 286.241 353.634 288.307 353.014 289.01C352.787 289.196 352.497 289.289 352.146 289.289ZM373.226 288.793C372.234 288.214 371.283 287.491 370.374 286.623C369.485 285.734 368.586 284.877 367.677 284.05C367.388 283.781 367.243 283.461 367.243 283.089C367.243 282.924 367.357 282.614 367.584 282.159C367.873 281.973 368.266 281.88 368.762 281.88C370.188 283.265 371.996 284.897 374.187 286.778C374.373 287.005 374.466 287.367 374.466 287.863L374.125 288.452C373.836 288.638 373.536 288.752 373.226 288.793ZM351.185 280.299L350.565 279.989C350.338 279.679 350.224 279.348 350.224 278.997C350.224 278.894 350.317 278.625 350.503 278.191C351.474 278.005 352.466 277.881 353.479 277.819C354.512 277.757 357.209 277.726 361.57 277.726C361.487 276.631 361.384 275.659 361.26 274.812C361.363 274.047 361.849 273.665 362.717 273.665L363.306 273.975C363.554 274.533 363.699 275.132 363.74 275.773C363.781 276.414 363.843 277.065 363.926 277.726L374.063 277.354L374.683 277.664C374.869 277.933 374.962 278.315 374.962 278.811L374.683 279.4L374.063 279.71C361.498 279.937 354.771 280.092 353.882 280.175C353.014 280.258 352.115 280.299 351.185 280.299ZM404.195 300.387C401.674 300.387 400.134 299.54 399.576 297.845C399.411 297.349 399.307 296.522 399.266 295.365C399.245 294.208 399.194 291.945 399.111 288.576C399.152 288.266 399.266 287.987 399.452 287.739C399.741 287.532 400.134 287.429 400.63 287.429L401.25 287.739C401.457 287.987 401.56 288.318 401.56 288.731C401.601 292.74 401.632 295.086 401.653 295.768C401.674 296.45 401.963 297.008 402.521 297.442C402.996 297.835 403.627 298.031 404.412 298.031L404.877 298C404.712 297.318 404.629 296.533 404.629 295.644L404.939 295.024C405.187 294.838 405.487 294.745 405.838 294.745C405.941 294.745 406.21 294.838 406.644 295.024C406.892 295.685 407.057 296.367 407.14 297.07C407.243 297.773 407.388 298.403 407.574 298.961C407.615 299.106 407.636 299.24 407.636 299.364C407.636 300.046 406.489 300.387 404.195 300.387ZM380.976 300.046C380.211 299.943 379.829 299.529 379.829 298.806C379.829 298.703 379.922 298.434 380.108 298C382.03 296.533 383.859 295.479 385.595 294.838L386.215 295.148C386.401 295.396 386.494 295.758 386.494 296.233L386.091 296.915C384.417 298.072 382.712 299.116 380.976 300.046ZM389.625 300.046H389.408L388.819 299.767C388.612 299.478 388.509 299.095 388.509 298.62C389.026 297.773 389.449 296.894 389.78 295.985C390.131 295.055 390.369 292.771 390.493 289.134C390.596 288.369 391.082 287.987 391.95 287.987L392.57 288.297L392.911 289.072C392.766 292.957 392.508 295.458 392.136 296.574C391.764 297.69 391.216 298.754 390.493 299.767C390.266 299.953 389.976 300.046 389.625 300.046ZM396.631 298.124H396.445L395.825 297.814C395.515 296.491 395.308 295.086 395.205 293.598C395.102 292.11 395.009 290.643 394.926 289.196C395.029 288.431 395.443 288.049 396.166 288.049H396.383L396.972 288.328C397.22 289.795 397.396 291.273 397.499 292.761C397.602 294.228 397.737 295.696 397.902 297.163L397.53 297.814C397.282 298.021 396.982 298.124 396.631 298.124ZM403.203 286.468C402.872 286.427 402.583 286.303 402.335 286.096L401.808 285.321C400.01 285.486 398.326 285.652 396.755 285.817C395.205 285.962 393.645 286.075 392.074 286.158C391.33 286.055 390.958 285.796 390.958 285.383C390.958 285.218 391.03 285.011 391.175 284.763C391.444 283.792 391.795 282.862 392.229 281.973C392.684 281.084 393.118 280.196 393.531 279.307C392.808 279.286 392.084 279.276 391.361 279.276C390.638 279.276 389.945 279.121 389.284 278.811C389.077 278.542 388.974 278.181 388.974 277.726L389.284 277.106C389.78 276.879 390.317 276.765 390.896 276.765L395.639 276.92L395.577 273.913L395.887 273.293C396.176 273.045 396.559 272.921 397.034 272.921L397.654 273.231C397.881 273.727 397.995 274.254 397.995 274.812C397.995 275.701 398.005 276.341 398.026 276.734L404.226 276.796C405.156 276.796 405.621 277.22 405.621 278.067V278.253L405.311 278.873C404.939 279.142 404.515 279.276 404.04 279.276L396.259 279.307L394.151 283.678C395.184 283.595 396.156 283.502 397.065 283.399C397.974 283.296 398.894 283.213 399.824 283.151L398.987 282.593C398.78 282.345 398.677 281.983 398.677 281.508L398.987 280.888C399.235 280.661 399.545 280.547 399.917 280.547L400.196 280.578C401.105 280.95 401.849 281.518 402.428 282.283C403.007 283.048 403.585 283.74 404.164 284.36C404.371 284.649 404.474 285.032 404.474 285.507L404.164 286.096C403.875 286.303 403.554 286.427 403.203 286.468ZM385.285 285.073H385.099C384.128 284.66 382.526 284.112 380.294 283.43C380.087 283.182 379.984 282.82 379.984 282.345L380.294 281.756C380.625 281.529 380.986 281.415 381.379 281.415L381.751 281.446C383.301 281.859 384.789 282.386 386.215 283.027C386.401 283.296 386.494 283.678 386.494 284.174L386.215 284.763C385.967 284.97 385.657 285.073 385.285 285.073ZM386.153 278.625L380.604 276.672C380.397 276.403 380.294 276.021 380.294 275.525L380.604 274.936C380.935 274.709 381.286 274.595 381.658 274.595L381.999 274.626C382.805 274.957 383.632 275.267 384.479 275.556C385.347 275.825 386.184 276.145 386.99 276.517C387.238 276.786 387.362 277.168 387.362 277.664L387.052 278.253C386.763 278.46 386.463 278.584 386.153 278.625Z" fill="#1D1D1F"/>
<path d="M25.854 317.519C25.5233 317.478 25.2237 317.333 24.955 317.085C24.149 316.155 23.2707 315.235 22.32 314.326C21.39 313.396 20.584 312.435 19.902 311.443L19.84 310.699L20.119 310.11C20.4083 309.903 20.801 309.8 21.297 309.8L21.886 310.11C22.4027 310.957 23.0433 311.743 23.808 312.466C24.5727 313.189 25.5543 314.181 26.753 315.442C26.9597 315.69 27.063 316.062 27.063 316.558L26.753 317.147C26.4843 317.354 26.1847 317.478 25.854 317.519ZM7.316 317.395C6.55133 317.292 6.169 316.785 6.169 315.876C7.51233 314.037 8.65933 312.053 9.61 309.924C9.87867 309.717 10.261 309.614 10.757 309.614L11.346 309.924C11.5527 310.151 11.656 310.513 11.656 311.009C11.284 312.104 10.7983 313.138 10.199 314.109C9.59967 315.08 9.00033 316.052 8.401 317.023C8.07033 317.23 7.70867 317.354 7.316 317.395ZM3.565 307.196C2.80033 307.093 2.418 306.586 2.418 305.677L2.728 305.057L3.317 304.778H9.765L9.238 299.012C8.59733 298.971 7.94633 298.94 7.285 298.919C6.62367 298.898 6.03467 298.754 5.518 298.485C5.31133 298.216 5.208 297.834 5.208 297.338L5.518 296.749C5.78667 296.522 6.11733 296.408 6.51 296.408L9.114 296.625L9.052 294.021C9.15533 293.256 9.641 292.874 10.509 292.874L11.098 293.184L11.408 293.773L11.47 296.625L18.786 296.501V293.835C18.8893 293.07 19.3957 292.688 20.305 292.688L20.925 292.998C21.1317 293.225 21.235 293.525 21.235 293.897L21.173 296.501H23.622C24.552 296.501 25.017 296.925 25.017 297.772V297.958L24.707 298.578C24.335 298.826 23.9113 298.95 23.436 298.95L21.111 298.888V304.778L27.497 304.654L28.086 304.964C28.2927 305.233 28.396 305.615 28.396 306.111L28.086 306.7C27.5487 306.989 26.9493 307.134 26.288 307.134L3.565 307.196ZM12.276 304.84L18.693 304.654L18.724 298.888L11.594 299.012L12.276 304.84ZM38.161 318.666H37.975L37.355 318.356C37.045 317.55 36.89 316.682 36.89 315.752V314.915C36.89 313.592 36.8487 311.102 36.766 307.444H33.728C33.0873 307.382 32.767 307.02 32.767 306.359V306.173L36.704 300.345L34.255 297.462C34.193 297.297 34.162 297.131 34.162 296.966C34.162 296.656 34.2757 296.377 34.503 296.129C36.0737 294.083 37.169 292.75 37.789 292.13C38.037 291.841 38.3677 291.696 38.781 291.696C38.967 291.696 39.2667 291.81 39.68 292.037C39.8867 292.264 39.99 292.564 39.99 292.936V293.122L37.045 296.935L38.254 298.237C38.6467 297.596 39.122 297.08 39.68 296.687L40.61 296.625L41.199 296.935C41.4057 297.162 41.509 297.472 41.509 297.865V298.051L36.642 305.057L40.114 304.902C39.7833 304.447 39.618 304.024 39.618 303.631V303.507L39.928 302.887C40.176 302.66 40.4757 302.546 40.827 302.546C40.9923 302.546 41.3023 302.66 41.757 302.887C42.2737 303.693 42.6767 304.551 42.966 305.46C43.276 306.369 43.5757 307.289 43.865 308.219L43.555 308.839C43.2863 309.025 42.9763 309.118 42.625 309.118H42.408L41.757 308.777C41.4263 308.322 41.199 307.837 41.075 307.32L39.153 307.258L39.401 317.767L39.091 318.356C38.8223 318.563 38.5123 318.666 38.161 318.666ZM57.443 317.705L47.027 317.581L46.593 317.612C46.097 317.612 45.818 317.447 45.756 317.116C45.7147 316.785 45.694 314.471 45.694 310.172C45.7147 309.242 45.9213 308.777 46.314 308.777C46.3347 308.777 46.4587 308.787 46.686 308.808C46.9133 308.829 48.7423 308.86 52.173 308.901C55.6243 308.922 57.567 308.973 58.001 309.056C58.311 309.139 58.466 309.418 58.466 309.893L58.435 310.389L58.497 316.403C58.497 317.271 58.1457 317.705 57.443 317.705ZM33.542 314.977H33.356L32.767 314.667C32.5397 314.419 32.426 314.119 32.426 313.768L32.457 313.458C32.8497 311.453 33.1907 310.172 33.48 309.614C33.7693 309.345 34.1103 309.211 34.503 309.211C34.6683 309.211 34.9783 309.325 35.433 309.552C35.619 309.8 35.712 310.1 35.712 310.451V310.637C35.1127 312.807 34.689 314.15 34.441 314.667C34.2137 314.874 33.914 314.977 33.542 314.977ZM56.141 315.876V314.109L48.05 313.954L47.988 315.814L56.141 315.876ZM42.532 314.605H42.346L41.757 314.295C40.7443 312.394 40.176 311.071 40.052 310.327L40.362 309.738C40.61 309.511 40.9097 309.397 41.261 309.397C41.4263 309.397 41.726 309.511 42.16 309.738C42.4493 310.379 42.78 311.009 43.152 311.629C43.5447 312.249 43.741 312.941 43.741 313.706L43.431 314.295C43.2037 314.502 42.904 314.605 42.532 314.605ZM56.079 312.342V310.699L48.05 310.513V312.156L56.079 312.342ZM58.218 307.878H52.421C47.5023 307.878 44.9087 307.857 44.64 307.816C44.3713 307.754 44.2163 307.32 44.175 306.514C44.2163 303.331 44.2887 301.523 44.392 301.089C44.4953 300.655 44.919 300.417 45.663 300.376L58.683 300.531C59.0963 300.531 59.3547 300.831 59.458 301.43C59.52 303.6 59.551 305.171 59.551 306.142L59.52 307.103C59.458 307.62 59.024 307.878 58.218 307.878ZM50.654 306.111L50.778 302.236H46.717L46.593 306.111H50.654ZM57.04 306.111L57.102 302.174L53.134 302.236L53.072 306.111H57.04ZM49.321 305.429H48.825C48.267 304.954 47.802 304.385 47.43 303.724V303.259C47.554 302.97 47.7607 302.763 48.05 302.639H48.577C49.197 303.094 49.6413 303.641 49.91 304.282V304.84C49.786 305.109 49.5897 305.305 49.321 305.429ZM54.963 305.367H54.498C54.188 305.243 53.971 305.047 53.847 304.778V304.22C54.1983 303.579 54.6323 303.032 55.149 302.577H55.707C55.9963 302.701 56.1927 302.908 56.296 303.197V303.724C55.9447 304.385 55.5003 304.933 54.963 305.367ZM43.369 300.159C42.6043 300.056 42.222 299.632 42.222 298.888V298.702L42.532 298.113C47.6573 294.021 50.4267 291.861 50.84 291.634C50.964 291.572 51.0983 291.541 51.243 291.541C51.5737 291.541 51.9767 291.706 52.452 292.037L60.605 297.524C60.8117 297.793 60.915 298.103 60.915 298.454V298.64L60.605 299.26C60.357 299.487 60.0573 299.601 59.706 299.601L59.396 299.57C58.032 298.764 55.2937 297.018 51.181 294.331L44.423 299.818C44.0923 300.004 43.741 300.118 43.369 300.159ZM53.971 299.508C52.9997 299.384 52.0077 299.312 50.995 299.291C50.003 299.27 49.0627 299.115 48.174 298.826C48.05 298.681 47.988 298.485 47.988 298.237C47.988 297.886 48.1843 297.617 48.577 297.431C50.3957 297.514 51.708 297.565 52.514 297.586C53.32 297.607 54.1053 297.762 54.87 298.051C54.9733 298.216 55.025 298.413 55.025 298.64C55.025 299.012 54.8287 299.281 54.436 299.446L53.971 299.508ZM77.283 318.418H77.097L76.508 318.108C76.3013 317.881 76.1773 317.602 76.136 317.271L76.198 308.033C74.9787 309.294 73.7697 310.544 72.571 311.784C71.393 313.024 70.215 314.243 69.037 315.442C68.5823 315.897 68.0347 316.124 67.394 316.124L66.774 315.814C66.588 315.566 66.495 315.204 66.495 314.729L66.836 314.047C68.9647 312.228 71.5377 309.562 74.555 306.049L66.185 306.328L65.565 306.049C65.3377 305.76 65.224 305.419 65.224 305.026C65.224 304.923 65.317 304.654 65.503 304.22C65.9783 303.931 66.5157 303.786 67.115 303.786L76.198 303.693V298.237L69.781 298.113L69.13 297.772C68.944 297.483 68.851 297.162 68.851 296.811C68.851 296.708 68.944 296.439 69.13 296.005L69.781 295.726L76.198 295.85L76.136 292.998C76.2393 292.233 76.6527 291.851 77.376 291.851H77.593L78.182 292.13L78.554 292.812V295.912C81.0133 295.912 82.4497 295.902 82.863 295.881C83.607 295.881 84.3097 296.005 84.971 296.253C85.1983 296.542 85.312 296.925 85.312 297.4L84.971 298.051C84.3923 298.299 83.762 298.423 83.08 298.423C82.832 298.423 82.5737 298.402 82.305 298.361L78.554 298.299V303.724C80.538 303.807 82.5323 303.889 84.537 303.972C86.5417 304.055 88.5153 304.261 90.458 304.592C90.6647 304.84 90.768 305.202 90.768 305.677L90.458 306.297C90.086 306.524 89.683 306.638 89.249 306.638C87.5543 306.514 85.839 306.421 84.103 306.359C82.3877 306.276 80.6827 306.194 78.988 306.111C80.476 307.268 81.902 308.477 83.266 309.738C84.63 310.978 86.459 312.28 88.753 313.644C88.9597 313.913 89.063 314.295 89.063 314.791L88.753 315.38C88.5257 315.587 88.164 315.69 87.668 315.69C85.7047 314.574 84.041 313.458 82.677 312.342C81.313 311.205 79.9387 310.089 78.554 308.994L78.492 317.519L78.182 318.108C77.9547 318.315 77.655 318.418 77.283 318.418ZM108.593 318.604H108.407L107.818 318.294C107.611 318.046 107.487 317.767 107.446 317.457L107.384 309.862C106.206 310.895 104.987 311.929 103.726 312.962C102.486 313.995 101.112 315.256 99.603 316.744C99.355 316.951 99.0553 317.054 98.704 317.054H98.518L97.898 316.744C97.6913 316.475 97.588 316.155 97.588 315.783V315.597C99.758 313.51 101.504 311.856 102.827 310.637C104.17 309.418 105.689 307.744 107.384 305.615L107.446 298.578L99.448 298.547C98.704 298.547 97.991 298.423 97.309 298.175C97.1023 297.927 96.999 297.617 96.999 297.245V297.059L97.309 296.439C97.867 296.17 98.4973 296.036 99.2 296.036L99.851 296.067L107.446 296.191L107.477 294.579V293.556C107.477 292.791 107.601 292.078 107.849 291.417C108.097 291.21 108.407 291.107 108.779 291.107H108.965L109.554 291.417C109.802 292.037 109.926 292.698 109.926 293.401C109.926 293.67 109.905 293.938 109.864 294.207L109.802 296.191L120.063 296.129L120.683 296.439C120.869 296.728 120.962 297.049 120.962 297.4C120.962 297.524 120.869 297.803 120.683 298.237C120.394 298.444 120.084 298.557 119.753 298.578H109.802V306.452C110.319 307.031 110.949 307.568 111.693 308.064C112.458 308.539 113.605 309.356 115.134 310.513C116.684 311.65 117.707 312.404 118.203 312.776C118.72 313.148 119.236 313.458 119.753 313.706C119.96 313.933 120.063 314.233 120.063 314.605V314.791L119.753 315.38C119.484 315.587 119.164 315.69 118.792 315.69C118.337 315.69 116.86 314.77 114.359 312.931L109.74 309.552L109.802 317.705L109.492 318.294C109.265 318.501 108.965 318.604 108.593 318.604ZM97.619 309.056H97.433L96.813 308.777C96.6063 308.529 96.503 308.219 96.503 307.847V307.661C97.3503 306.338 98.208 305.026 99.076 303.724C99.944 302.401 100.791 301.058 101.618 299.694C101.907 299.487 102.228 299.384 102.579 299.384H102.765L103.385 299.694C103.592 299.963 103.695 300.283 103.695 300.655V300.841L101.804 304.096C102.569 304.778 103.375 305.367 104.222 305.863C104.429 306.111 104.532 306.411 104.532 306.762V306.948L104.222 307.568C103.953 307.754 103.643 307.847 103.292 307.847H103.075C102.6 307.62 102.135 307.341 101.68 307.01C101.246 306.679 100.791 306.38 100.316 306.111L98.642 308.715C98.3527 308.942 98.0117 309.056 97.619 309.056ZM113.15 308.343H112.964L112.344 308.033C112.137 307.764 112.034 307.444 112.034 307.072V306.886C113.171 304.881 114.245 302.484 115.258 299.694C115.527 299.487 115.857 299.384 116.25 299.384H116.436L117.025 299.694C117.232 299.963 117.335 300.283 117.335 300.655C117.335 300.758 117.035 301.688 116.436 303.445L119.288 306.111C119.557 306.421 119.691 306.783 119.691 307.196V307.382L119.412 307.971C119.123 308.178 118.792 308.281 118.42 308.281H118.234L117.645 307.971L115.32 305.739L114.049 308.033C113.801 308.24 113.501 308.343 113.15 308.343Z" fill="#1D1D1F"/>
<path d="M358 320.452C279.058 393.385 162 419.749 54 335.5" stroke="#00D959" stroke-width="8" stroke-linecap="round" stroke-linejoin="round"/>
<path d="M274 62.833C317.5 62.833 355.507 91.5785 371 143.333" stroke="#00D959" stroke-width="8" stroke-linecap="round" stroke-linejoin="round"/>
<path d="M38.0001 169C50 121.5 58 89.5 113 63.0001" stroke="#00D959" stroke-width="8" stroke-linecap="round" stroke-linejoin="round"/>
<path d="M380.611 216.416C381.228 216.144 381.752 215.696 382.118 215.129C382.484 214.562 382.675 213.901 382.668 213.226C382.661 212.552 382.456 211.894 382.079 211.335C381.701 210.776 381.168 210.339 380.545 210.08L350.979 196.622C350.08 196.212 349.104 196 348.116 196C347.128 196 346.152 196.212 345.253 196.622L315.69 210.066C315.076 210.335 314.554 210.777 314.187 211.337C313.82 211.898 313.625 212.554 313.625 213.224C313.625 213.894 313.82 214.549 314.187 215.11C314.554 215.671 315.076 216.113 315.69 216.381L345.253 229.853C346.152 230.263 347.128 230.475 348.116 230.475C349.104 230.475 350.08 230.263 350.979 229.853L380.611 216.416Z" stroke="#00D959" stroke-width="5" stroke-linecap="round" stroke-linejoin="round"/>
<path d="M382.611 213.237V233.921" stroke="#00D959" stroke-width="5" stroke-linecap="round" stroke-linejoin="round"/>
<path d="M327.419 221.855V233.921C327.419 236.664 329.599 239.294 333.481 241.234C337.362 243.173 342.627 244.263 348.116 244.263C353.605 244.263 358.87 243.173 362.751 241.234C366.633 239.294 368.813 236.664 368.813 233.921V221.855" stroke="#00D959" stroke-width="5" stroke-linecap="round" stroke-linejoin="round"/>
<path d="M195.729 28.1627L203.229 19.1627C203.229 21.9024 203.429 27.9378 204.229 30.1627M206.229 20.1627C213.562 16.4961 227.829 8.16274 226.229 4.16274C224.229 -0.837262 206.229 11.6627 205.229 15.6627M198.229 18.6626C195.895 16.8293 191.529 12.6626 192.729 10.6626C194.229 8.1626 198.729 13.1626 199.729 15.1626M192.729 32.1628C174.065 34 171.929 45.8628 168.729 56.6628C164.729 70.1628 178.065 88.5 187.565 90.5C197.065 92.5 218.729 88.1628 224.229 79.6628C229.729 71.1628 230.229 59.6628 227.229 49.6628C224.229 39.6628 203.729 29.1628 192.729 32.1628ZM199.229 57.1627L184.729 48.6627L191.729 64.1627L184.229 77.6627L199.229 67.6627L214.729 77.6627L205.229 60.6627L212.229 48.6627L199.229 57.1627Z" stroke="#00D959" stroke-width="5" stroke-linecap="round" stroke-linejoin="round"/>
<path d="M85.5333 244.369H74.571C73.2902 244.369 72.0619 244.878 71.1563 245.783C70.2506 246.688 69.7418 247.915 69.7418 249.195V260.15" stroke="#00D959" stroke-width="4" stroke-linecap="round" stroke-linejoin="round"/>
<path d="M50.425 216.233V220.238C50.425 222.158 51.1882 224 52.5467 225.357C53.9052 226.715 55.7477 227.477 57.6688 227.477C58.9496 227.477 60.1779 227.986 61.0836 228.891C61.9892 229.796 62.498 231.024 62.498 232.303C62.498 234.958 64.6712 237.129 67.3272 237.129C68.608 237.129 69.8363 236.621 70.742 235.716C71.6476 234.811 72.1564 233.583 72.1564 232.303C72.1564 229.649 74.3296 227.477 76.9856 227.477H84.6399" stroke="#00D959" stroke-width="4" stroke-linecap="round" stroke-linejoin="round"/>
<path d="M60.0835 261.139V251.608C60.0835 250.328 59.5748 249.1 58.6691 248.195C57.7635 247.29 56.5351 246.782 55.2543 246.782C53.9736 246.782 52.7452 246.273 51.8396 245.368C50.9339 244.463 50.4252 243.236 50.4252 241.956V239.543C50.4252 238.263 49.9164 237.035 49.0107 236.13C48.1051 235.225 46.8767 234.717 45.596 234.717H38.4729" stroke="#00D959" stroke-width="4" stroke-linecap="round" stroke-linejoin="round"/>
<path d="M62.498 261.26C75.8335 261.26 86.644 250.457 86.644 237.13C86.644 223.803 75.8335 213 62.498 213C49.1626 213 38.3521 223.803 38.3521 237.13C38.3521 250.457 49.1626 261.26 62.498 261.26Z" stroke="#00D959" stroke-width="4" stroke-linecap="round" stroke-linejoin="round"/>
</svg>
