<svg xmlns="http://www.w3.org/2000/svg" width="32" height="27" viewBox="0 0 32 27" fill="none">
  <path d="M17.434 0.351927C15.4558 0.337227 13.4996 0.766757 11.7096 1.60884C9.91959 2.45092 8.34142 3.68408 7.09149 5.21736C6.9637 5.3707 6.83942 5.52693 6.71874 5.68593L6.72399 5.68199C7.03024 5.42386 7.34393 5.22918 7.66506 5.09793L7.74118 5.06774C8.13493 4.92074 8.53131 4.8748 8.92243 4.95224C10.8124 5.33155 11.7968 8.37655 11.1222 11.7549C10.4462 15.1333 8.36593 17.5654 6.47593 17.1874C5.15031 16.9222 4.27224 15.3433 4.09637 13.2604V13.2538V13.3221C4.09248 13.497 4.09248 13.6721 4.09637 13.8471V13.9429L4.09899 14.0203C4.10956 14.3021 4.12838 14.5835 4.15543 14.8642C4.30105 16.4341 4.72831 17.9648 5.41674 19.3832C5.49549 19.5486 5.45612 19.7454 5.31437 19.8596L4.95081 20.1562C4.76841 20.3069 4.63486 20.5083 4.5671 20.735C4.49934 20.9616 4.50041 21.2033 4.57018 21.4294C4.57018 21.4364 4.57281 21.4438 4.57806 21.4517C4.59947 21.5157 4.6258 21.578 4.65681 21.6381L4.72243 21.5856L5.02431 21.3585C5.06003 21.3299 5.10113 21.3087 5.14517 21.2962C5.18921 21.2838 5.23531 21.2803 5.28073 21.2859C5.32615 21.2915 5.36998 21.3062 5.40963 21.3291C5.44928 21.352 5.48395 21.3826 5.51158 21.419C5.53921 21.4555 5.55925 21.4972 5.57051 21.5416C5.58177 21.5859 5.58403 21.6321 5.57715 21.6774C5.57026 21.7226 5.55438 21.766 5.53044 21.805C5.5065 21.844 5.47498 21.8779 5.43774 21.9045L5.11618 22.1486L5.06762 22.1854L6.61243 24.0859C6.81228 24.3295 7.1003 24.4842 7.41374 24.5164C7.72719 24.5486 8.04066 24.4557 8.28587 24.2578L8.62449 23.9822C8.69422 23.9266 8.78076 23.8963 8.86993 23.8963C8.95911 23.8963 9.04564 23.9266 9.11537 23.9822C11.5454 25.9151 14.5795 26.9287 17.6834 26.8447C20.3093 26.7802 22.856 25.9324 24.9966 24.4101C25.0707 24.3569 25.1609 24.3312 25.2519 24.3372C25.3428 24.3432 25.4289 24.3805 25.4954 24.4429L25.7093 24.6476C25.9159 24.8423 26.1852 24.9571 26.4688 24.9713C26.7523 24.9855 27.0317 24.8982 27.2567 24.7251L27.2515 24.7198L26.9759 24.4612C26.9138 24.3979 26.8785 24.313 26.8775 24.2244C26.8765 24.1357 26.9098 24.05 26.9705 23.9853C27.0311 23.9206 27.1144 23.8818 27.203 23.8771C27.2916 23.8723 27.3785 23.902 27.4457 23.9599L27.7411 24.2355L29.3948 22.4951C29.6112 22.2657 29.728 21.9601 29.7199 21.6449C29.7118 21.3297 29.5794 21.0304 29.3515 20.8125L29.0063 20.4844C28.9443 20.4243 28.9038 20.3455 28.891 20.2601C28.8782 20.1747 28.8938 20.0875 28.9354 20.0119C30.4137 17.3477 30.9252 14.2544 30.3831 11.2562C30.7769 10.8913 31.5027 10.1747 31.7862 9.56043C32.0894 8.90155 32.1668 8.22168 31.3622 8.52093C30.7375 8.75324 30.2571 8.90155 29.6744 8.7703C27.8146 4.05449 23.3127 0.64199 18.0574 0.370302C17.8507 0.359281 17.6437 0.353155 17.4366 0.351927H17.434ZM3.47293 6.04818C3.20209 6.05287 2.9368 6.12575 2.70157 6.26008C2.46634 6.39442 2.26877 6.58587 2.1271 6.81675C1.98543 7.04764 1.90423 7.3105 1.89102 7.58106C1.87781 7.85162 1.933 8.12115 2.05149 8.36474C1.80076 8.37467 1.55578 8.4429 1.33603 8.56404C1.11627 8.68518 0.927772 8.85588 0.785506 9.06258C0.643239 9.26929 0.551117 9.50632 0.516454 9.75485C0.48179 10.0034 0.50554 10.2566 0.585816 10.4943C0.666093 10.7321 0.800687 10.9478 0.978913 11.1245C1.15714 11.3011 1.37409 11.4338 1.61254 11.5119C1.851 11.5901 2.10438 11.6116 2.35259 11.5747C2.6008 11.5378 2.837 11.4436 3.04243 11.2995C3.26374 11.1404 3.44155 10.9283 3.55956 10.6826C3.80499 11.1315 4.16331 11.5056 4.58199 11.7628C4.57629 12.0255 4.58374 12.2883 4.60431 12.5503C4.73818 14.1621 5.41806 15.3853 6.44181 15.5901C7.90393 15.8827 9.51306 14.0019 10.0354 11.3901C10.5604 8.77818 9.79918 6.42355 8.33574 6.13086C7.76612 6.01668 7.17418 6.23587 6.63212 6.69787C6.04149 7.20055 5.51124 7.99461 5.13587 8.96849C5.12274 8.96674 5.10962 8.96368 5.09649 8.9593C4.91274 8.9068 4.81562 8.78736 4.68831 8.7598C4.90323 8.52745 5.04511 8.23704 5.09631 7.92469C5.1475 7.61234 5.10575 7.29183 4.97624 7.00303C4.84673 6.71422 4.63518 6.46985 4.3679 6.30032C4.10062 6.13078 3.78939 6.04356 3.47293 6.04949V6.04818ZM7.22931 7.68224C7.29931 7.68224 7.36931 7.6888 7.43931 7.70193C8.39218 7.88961 8.88831 9.42393 8.54706 11.1249C8.20581 12.8286 7.15843 14.0518 6.20687 13.8615C5.55981 13.7329 5.12537 12.9821 5.01906 11.9807C5.25531 12.0726 5.50468 12.129 5.75406 12.1408C6.44443 12.1723 6.89593 11.9387 7.25031 11.4675C7.70312 10.8572 7.35924 9.16668 6.75812 8.94749C6.29087 8.77687 6.01393 8.98293 5.59787 9.01311C5.78167 8.65603 6.02947 8.33572 6.32893 8.06811C6.61768 7.8253 6.92349 7.68486 7.22931 7.68093V7.68224Z" fill="#424242"/>
</svg>