<svg xmlns="http://www.w3.org/2000/svg" width="29" height="23" viewBox="0 0 29 23" fill="none">
  <path d="M28.0107 2.72559C27.0001 3.18496 25.9107 3.48684 24.782 3.63121C25.937 2.93559 26.8295 1.83309 27.2495 0.507461C26.1601 1.16371 24.9526 1.62309 23.6795 1.88559C22.6426 0.756836 21.1857 0.100586 19.532 0.100586C16.4476 0.100586 13.9276 2.62059 13.9276 5.73121C13.9276 6.17746 13.9801 6.61059 14.072 7.01746C9.39947 6.78121 5.23885 4.53684 2.46947 1.13746C1.98385 1.96434 1.70822 2.93559 1.70822 3.95934C1.70822 5.91496 2.6926 7.64746 4.2151 8.63184C3.28322 8.63184 2.41697 8.36934 1.65572 7.97559V8.01496C1.65572 10.745 3.59822 13.0287 6.17072 13.5406C5.34495 13.7676 4.47765 13.799 3.6376 13.6325C3.99408 14.7513 4.69224 15.7304 5.63393 16.4319C6.57562 17.1335 7.7135 17.5223 8.8876 17.5437C6.89741 19.1194 4.43036 19.971 1.89197 19.9587C1.44572 19.9587 0.999473 19.9325 0.553223 19.88C3.04697 21.4812 6.01322 22.4131 9.18947 22.4131C19.532 22.4131 25.2151 13.8293 25.2151 6.38746C25.2151 6.13809 25.2151 5.90184 25.202 5.65246C26.3045 4.86496 27.2495 3.86746 28.0107 2.72559Z" fill="#424242"/>
</svg>