<svg width="509" height="425" viewBox="0 0 509 425" fill="none" xmlns="http://www.w3.org/2000/svg">
<path d="M192.73 137.814C191.531 137.814 190.581 137.576 189.878 137.101C189.63 136.812 189.506 136.481 189.506 136.109V135.954L189.816 135.303C190.043 135.096 190.343 134.993 190.715 134.993H190.901C191.562 135.344 192.224 135.52 192.885 135.52C193.05 135.52 193.381 135.499 193.877 135.458C194.373 135.396 194.9 135.293 195.458 135.148C196.037 135.003 196.626 134.6 197.225 133.939C197.742 133.381 198 132.73 198 131.986C198 131.841 197.969 131.511 197.907 130.994C197.845 130.477 197.401 129.919 196.574 129.32C195.747 128.7 194.838 128.163 193.846 127.708C192.854 127.253 191.976 126.654 191.211 125.91C189.868 124.629 189.196 123.068 189.196 121.229C189.196 121.105 189.206 120.795 189.227 120.299C189.248 119.782 189.434 119.173 189.785 118.47C190.157 117.767 190.653 117.116 191.273 116.517C192.1 115.711 193.247 115.308 194.714 115.308C195.871 115.308 196.874 115.566 197.721 116.083C197.99 116.414 198.124 116.796 198.124 117.23V117.416L197.814 118.005C197.587 118.212 197.287 118.315 196.915 118.315H196.729C195.861 117.943 195.148 117.757 194.59 117.757C193.846 117.757 193.226 118.005 192.73 118.501C191.945 119.286 191.552 120.165 191.552 121.136C191.552 121.219 191.562 121.425 191.583 121.756C191.604 122.066 191.707 122.469 191.893 122.965C192.079 123.44 192.492 123.957 193.133 124.515C193.794 125.052 194.642 125.538 195.675 125.972C196.708 126.385 197.659 127.005 198.527 127.832C199.395 128.659 199.932 129.527 200.139 130.436C200.263 131.056 200.325 131.655 200.325 132.234C200.325 133.185 200.16 134.042 199.829 134.807C199.622 135.282 199.157 135.809 198.434 136.388C197.277 137.339 195.375 137.814 192.73 137.814ZM204.541 141.875H204.355L203.766 141.565C203.518 141.255 203.373 140.893 203.332 140.48L202.929 124.887C202.97 124.577 203.084 124.298 203.27 124.05C203.559 123.843 203.88 123.74 204.231 123.74H204.417L205.037 124.05L205.161 124.36C206.773 123.492 208.302 123.058 209.749 123.058C209.997 123.058 210.431 123.089 211.051 123.151C212.022 123.254 213.107 124.019 214.306 125.445C215.05 126.354 215.422 127.935 215.422 130.188C215.422 131.304 215.277 132.42 214.988 133.536C214.781 134.342 214.244 135.086 213.376 135.768C212.012 136.822 210.514 137.349 208.881 137.349C207.848 137.349 206.783 137.184 205.688 136.853L205.75 140.976L205.471 141.565C205.223 141.772 204.913 141.875 204.541 141.875ZM208.943 134.962C209.542 134.962 210.09 134.859 210.586 134.652C210.979 134.404 211.433 134.053 211.95 133.598C212.487 133.123 212.818 132.492 212.942 131.707C213.045 131.108 213.097 130.529 213.097 129.971C213.097 129.785 213.076 129.465 213.035 129.01C213.014 128.535 212.89 128.028 212.663 127.491C212.436 126.933 212.053 126.416 211.516 125.941C211.061 125.548 210.545 125.352 209.966 125.352C209.842 125.352 209.573 125.383 209.16 125.445C208.747 125.486 208.251 125.621 207.672 125.848C207.093 126.055 206.401 126.644 205.595 127.615L205.688 134.28C206.845 134.735 207.93 134.962 208.943 134.962ZM222.8 137.783C221.87 137.783 221.043 137.649 220.32 137.38C219.762 137.194 219.194 136.739 218.615 136.016C217.582 134.755 217.065 133.123 217.065 131.118L217.096 130.033C217.179 127.925 217.799 126.21 218.956 124.887C220.299 123.337 221.87 122.562 223.668 122.562C223.937 122.562 224.412 122.614 225.094 122.717C225.776 122.8 226.572 123.316 227.481 124.267C228.39 125.218 228.907 126.034 229.031 126.716C229.258 128.142 229.372 129.217 229.372 129.94C229.372 130.353 229.341 130.932 229.279 131.676C229.134 133.495 228.473 135.003 227.295 136.202C226.262 137.256 224.763 137.783 222.8 137.783ZM222.831 135.396C223.72 135.396 224.495 135.21 225.156 134.838C225.838 134.466 226.303 133.929 226.551 133.226C226.882 132.275 227.047 131.211 227.047 130.033C227.047 129.64 227.016 129.134 226.954 128.514C226.913 127.873 226.654 127.181 226.179 126.437C225.724 125.693 225.239 125.259 224.722 125.135C224.495 125.073 224.247 125.042 223.978 125.042C223.627 125.042 223.172 125.114 222.614 125.259C222.056 125.383 221.446 125.848 220.785 126.654C220.124 127.46 219.721 128.266 219.576 129.072C219.473 129.692 219.421 130.281 219.421 130.839C219.421 131.666 219.566 132.554 219.855 133.505C220.227 134.766 221.219 135.396 222.831 135.396ZM238.579 138.062C237.69 138.062 236.843 137.638 236.037 136.791C235.314 136.047 234.849 135.024 234.642 133.722C234.435 132.399 234.27 130.126 234.146 126.902L231.914 127.026L231.325 126.716C231.077 126.427 230.953 126.096 230.953 125.724V125.569L231.263 124.949C231.635 124.68 232.069 124.546 232.565 124.546H233.216L234.27 124.515L234.239 122.996C234.239 121.384 234.353 120.289 234.58 119.71C234.828 119.503 235.128 119.4 235.479 119.4H235.665L236.285 119.71C236.512 120.041 236.626 120.402 236.626 120.795L236.595 121.136L236.657 124.422L241.586 124.298L242.175 124.577C242.382 124.825 242.485 125.135 242.485 125.507V125.693L242.175 126.282C241.39 126.551 240.542 126.685 239.633 126.685H239.013C238.166 126.685 237.339 126.737 236.533 126.84C236.657 129.775 236.76 131.728 236.843 132.699C236.946 133.67 237.153 134.404 237.463 134.9C237.69 135.293 238.083 135.489 238.641 135.489C239.323 135.489 240.418 135.231 241.927 134.714L242.547 134.993C242.754 135.241 242.857 135.551 242.857 135.923V136.109L242.423 136.853C241.307 137.659 240.026 138.062 238.579 138.062ZM252.839 138.062C251.95 138.062 251.103 137.638 250.297 136.791C249.574 136.047 249.109 135.024 248.902 133.722C248.695 132.399 248.53 130.126 248.406 126.902L246.174 127.026L245.585 126.716C245.337 126.427 245.213 126.096 245.213 125.724V125.569L245.523 124.949C245.895 124.68 246.329 124.546 246.825 124.546H247.476L248.53 124.515L248.499 122.996C248.499 121.384 248.613 120.289 248.84 119.71C249.088 119.503 249.388 119.4 249.739 119.4H249.925L250.545 119.71C250.772 120.041 250.886 120.402 250.886 120.795L250.855 121.136L250.917 124.422L255.846 124.298L256.435 124.577C256.642 124.825 256.745 125.135 256.745 125.507V125.693L256.435 126.282C255.65 126.551 254.802 126.685 253.893 126.685H253.273C252.426 126.685 251.599 126.737 250.793 126.84C250.917 129.775 251.02 131.728 251.103 132.699C251.206 133.67 251.413 134.404 251.723 134.9C251.95 135.293 252.343 135.489 252.901 135.489C253.583 135.489 254.678 135.231 256.187 134.714L256.807 134.993C257.014 135.241 257.117 135.551 257.117 135.923V136.109L256.683 136.853C255.567 137.659 254.286 138.062 252.839 138.062ZM266.107 137.442H265.921L265.27 137.163C264.857 134.332 264.598 130.622 264.495 126.034C264.598 125.269 265.032 124.887 265.797 124.887H265.983L266.572 125.197C266.985 128.917 267.233 132.699 267.316 136.543L267.006 137.163C266.758 137.349 266.458 137.442 266.107 137.442ZM265.394 122.655C264.919 122.572 264.485 122.324 264.092 121.911C263.72 121.477 263.534 120.981 263.534 120.423C263.534 120.361 263.544 120.165 263.565 119.834C263.586 119.483 263.813 119.111 264.247 118.718C264.578 118.408 264.939 118.253 265.332 118.253C265.973 118.253 266.572 118.542 267.13 119.121C267.461 119.493 267.626 119.906 267.626 120.361C267.626 120.464 267.585 120.702 267.502 121.074C267.44 121.425 267.223 121.766 266.851 122.097C266.479 122.428 265.993 122.614 265.394 122.655ZM284.49 137.876H284.304L283.684 137.566C283.415 137.194 283.281 136.77 283.281 136.295C283.281 136.13 283.302 135.954 283.343 135.768L283.529 133.35C283.57 132.771 283.591 132.193 283.591 131.614C283.591 130.56 283.477 129.682 283.25 128.979C282.733 127.532 281.979 126.809 280.987 126.809C280.884 126.809 280.667 126.84 280.336 126.902C280.005 126.943 279.613 127.253 279.158 127.832C278.724 128.411 278.259 129.072 277.763 129.816C277.288 130.539 276.998 131.335 276.895 132.203C276.895 134.187 276.905 135.458 276.926 136.016L276.647 136.605C276.399 136.812 276.099 136.915 275.748 136.915H275.562L274.942 136.605C274.549 134.6 274.312 132.575 274.229 130.529C274.146 128.462 274.022 126.427 273.857 124.422C273.96 123.637 274.384 123.244 275.128 123.244H275.314L275.903 123.554C276.11 124.153 276.234 124.794 276.275 125.476C276.316 126.137 276.358 126.809 276.399 127.491C276.833 126.933 277.277 126.406 277.732 125.91C278.662 124.877 279.706 124.36 280.863 124.36C281.09 124.36 281.473 124.412 282.01 124.515C282.568 124.598 283.188 124.98 283.87 125.662C284.552 126.323 285.079 127.109 285.451 128.018C285.74 128.783 285.885 129.837 285.885 131.18C285.885 131.428 285.864 132.038 285.823 133.009C285.782 133.98 285.761 134.838 285.761 135.582C285.761 136.305 285.637 136.967 285.389 137.566C285.141 137.773 284.841 137.876 284.49 137.876ZM293.511 141.999C292.622 141.875 291.94 141.534 291.465 140.976C290.597 140.005 290.163 138.971 290.163 137.876C290.163 137.752 290.173 137.504 290.194 137.132C290.215 136.739 290.587 136.243 291.31 135.644C292.054 135.024 292.788 134.559 293.511 134.249C294.255 133.939 295.051 133.763 295.898 133.722L295.836 132.048C294.534 132.875 293.521 133.288 292.798 133.288C292.653 133.288 292.374 133.267 291.961 133.226C291.568 133.164 291.114 132.854 290.597 132.296C289.77 131.428 289.357 130.457 289.357 129.382C289.357 129.155 289.378 128.793 289.419 128.297C289.481 127.801 289.667 127.15 289.977 126.344C290.308 125.538 290.731 124.877 291.248 124.36C291.785 123.823 292.312 123.523 292.829 123.461C293.015 123.44 293.222 123.43 293.449 123.43C293.821 123.43 294.317 123.471 294.937 123.554C295.578 123.637 296.539 124.267 297.82 125.445C298.068 125.92 298.192 126.437 298.192 126.995C298.192 127.222 298.171 127.45 298.13 127.677L298.254 133.319C298.585 133.195 298.884 133.133 299.153 133.133C299.256 133.133 299.546 133.247 300.021 133.474C300.207 133.763 300.3 134.084 300.3 134.435V134.652L300.021 135.241C299.484 135.53 298.895 135.675 298.254 135.675L298.285 136.605C298.285 137.101 298.233 137.659 298.13 138.279C298.047 138.899 297.51 139.674 296.518 140.604C295.547 141.534 294.544 141.999 293.511 141.999ZM293.852 139.581C294.162 139.581 294.4 139.498 294.565 139.333C295.516 138.61 295.991 137.7 295.991 136.605L295.96 136.078C294.493 136.285 293.449 136.812 292.829 137.659C292.664 137.886 292.581 138.103 292.581 138.31C292.581 138.537 292.715 138.806 292.984 139.116C293.253 139.426 293.542 139.581 293.852 139.581ZM292.736 130.622C293.191 130.622 293.604 130.529 293.976 130.343C294.575 129.93 294.989 129.444 295.216 128.886C295.443 128.328 295.609 127.667 295.712 126.902C295.485 126.571 295.144 126.282 294.689 126.034C294.462 125.931 294.234 125.879 294.007 125.879C293.139 125.879 292.509 126.396 292.116 127.429C291.951 127.884 291.868 128.359 291.868 128.855C291.868 129.062 291.899 129.413 291.961 129.909C292.023 130.384 292.281 130.622 292.736 130.622ZM155.158 174.62H155.065L154.445 174.31C154.094 172.264 153.66 164.958 153.143 152.393V152.3C153.143 151.246 153.453 150.657 154.073 150.533C154.59 150.45 155.54 150.409 156.925 150.409C157.194 150.409 157.865 150.419 158.94 150.44C160.015 150.44 160.831 150.595 161.389 150.905C161.947 151.215 162.598 151.732 163.342 152.455C164.396 153.509 164.923 154.811 164.923 156.361C164.923 156.65 164.882 157.074 164.799 157.632C164.716 158.19 164.53 158.8 164.241 159.461C163.952 160.102 163.352 160.908 162.443 161.879C161.534 162.83 160.831 163.439 160.335 163.708C159.86 163.977 159.353 164.183 158.816 164.328L164.675 171.055C165.026 171.427 165.202 171.871 165.202 172.388V172.543L164.892 173.163C164.665 173.349 164.375 173.442 164.024 173.442H163.807L156.026 165.32C156.15 166.849 156.233 168.296 156.274 169.66C156.315 171.003 156.377 172.347 156.46 173.69L156.15 174.31C155.881 174.517 155.551 174.62 155.158 174.62ZM155.84 162.53C156.625 162.447 157.297 162.323 157.855 162.158C158.413 161.993 158.94 161.776 159.436 161.507C160.387 161.052 161.048 160.463 161.42 159.74C161.813 159.017 162.123 158.386 162.35 157.849C162.495 157.477 162.567 157.043 162.567 156.547C162.567 156.34 162.536 155.989 162.474 155.493C162.433 154.997 162.102 154.449 161.482 153.85C160.717 153.127 159.653 152.765 158.289 152.765C157.566 152.765 156.698 152.837 155.685 152.982L155.84 162.53ZM173.417 173.442H173.231L172.58 173.163C172.167 170.332 171.908 166.622 171.805 162.034C171.908 161.269 172.342 160.887 173.107 160.887H173.293L173.882 161.197C174.295 164.917 174.543 168.699 174.626 172.543L174.316 173.163C174.068 173.349 173.768 173.442 173.417 173.442ZM172.704 158.655C172.229 158.572 171.795 158.324 171.402 157.911C171.03 157.477 170.844 156.981 170.844 156.423C170.844 156.361 170.854 156.165 170.875 155.834C170.896 155.483 171.123 155.111 171.557 154.718C171.888 154.408 172.249 154.253 172.642 154.253C173.283 154.253 173.882 154.542 174.44 155.121C174.771 155.493 174.936 155.906 174.936 156.361C174.936 156.464 174.895 156.702 174.812 157.074C174.75 157.425 174.533 157.766 174.161 158.097C173.789 158.428 173.303 158.614 172.704 158.655ZM186.964 174.124C186.261 174.124 185.61 173.938 185.011 173.566C184.536 173.297 184.06 173.06 183.585 172.853C183.337 172.522 183.192 172.161 183.151 171.768C183.254 170.983 183.678 170.59 184.422 170.59H184.608C185.145 170.859 185.652 171.148 186.127 171.458C186.458 171.685 186.871 171.799 187.367 171.799C188.462 171.799 189.33 171.489 189.971 170.869C190.364 170.518 190.56 170.135 190.56 169.722C190.56 169.619 190.519 169.422 190.436 169.133C190.374 168.844 189.971 168.616 189.227 168.451C188.483 168.265 187.594 168.017 186.561 167.707C185.548 167.397 184.732 166.922 184.112 166.281C183.079 165.248 182.562 164.121 182.562 162.902L182.624 162.127C182.727 161.238 183.316 160.267 184.391 159.213C185.486 158.159 186.675 157.632 187.956 157.632C188.183 157.632 188.545 157.673 189.041 157.756C189.537 157.818 190.095 158.107 190.715 158.624C191.232 159.099 191.49 159.575 191.49 160.05C191.49 160.153 191.387 160.412 191.18 160.825C190.932 161.032 190.632 161.135 190.281 161.135H190.095C189.165 160.453 188.421 160.112 187.863 160.112C187.801 160.112 187.605 160.143 187.274 160.205C186.964 160.246 186.582 160.453 186.127 160.825C185.693 161.197 185.352 161.724 185.104 162.406C185.001 162.675 184.949 162.923 184.949 163.15C184.949 163.543 185.125 163.935 185.476 164.328C185.827 164.721 186.23 165.031 186.685 165.258C187.16 165.485 187.915 165.682 188.948 165.847C190.002 166.012 190.891 166.395 191.614 166.994C192.337 167.573 192.761 168.193 192.885 168.854C192.947 169.164 192.978 169.474 192.978 169.784C192.978 170.135 192.916 170.569 192.792 171.086C192.689 171.582 192.337 172.109 191.738 172.667C190.663 173.638 189.072 174.124 186.964 174.124ZM201.937 173.442H201.751L201.1 173.163C200.687 170.332 200.428 166.622 200.325 162.034C200.428 161.269 200.862 160.887 201.627 160.887H201.813L202.402 161.197C202.815 164.917 203.063 168.699 203.146 172.543L202.836 173.163C202.588 173.349 202.288 173.442 201.937 173.442ZM201.224 158.655C200.749 158.572 200.315 158.324 199.922 157.911C199.55 157.477 199.364 156.981 199.364 156.423C199.364 156.361 199.374 156.165 199.395 155.834C199.416 155.483 199.643 155.111 200.077 154.718C200.408 154.408 200.769 154.253 201.162 154.253C201.803 154.253 202.402 154.542 202.96 155.121C203.291 155.493 203.456 155.906 203.456 156.361C203.456 156.464 203.415 156.702 203.332 157.074C203.27 157.425 203.053 157.766 202.681 158.097C202.309 158.428 201.823 158.614 201.224 158.655ZM220.32 173.876H220.134L219.514 173.566C219.245 173.194 219.111 172.77 219.111 172.295C219.111 172.13 219.132 171.954 219.173 171.768L219.359 169.35C219.4 168.771 219.421 168.193 219.421 167.614C219.421 166.56 219.307 165.682 219.08 164.979C218.563 163.532 217.809 162.809 216.817 162.809C216.714 162.809 216.497 162.84 216.166 162.902C215.835 162.943 215.443 163.253 214.988 163.832C214.554 164.411 214.089 165.072 213.593 165.816C213.118 166.539 212.828 167.335 212.725 168.203C212.725 170.187 212.735 171.458 212.756 172.016L212.477 172.605C212.229 172.812 211.929 172.915 211.578 172.915H211.392L210.772 172.605C210.379 170.6 210.142 168.575 210.059 166.529C209.976 164.462 209.852 162.427 209.687 160.422C209.79 159.637 210.214 159.244 210.958 159.244H211.144L211.733 159.554C211.94 160.153 212.064 160.794 212.105 161.476C212.146 162.137 212.188 162.809 212.229 163.491C212.663 162.933 213.107 162.406 213.562 161.91C214.492 160.877 215.536 160.36 216.693 160.36C216.92 160.36 217.303 160.412 217.84 160.515C218.398 160.598 219.018 160.98 219.7 161.662C220.382 162.323 220.909 163.109 221.281 164.018C221.57 164.783 221.715 165.837 221.715 167.18C221.715 167.428 221.694 168.038 221.653 169.009C221.612 169.98 221.591 170.838 221.591 171.582C221.591 172.305 221.467 172.967 221.219 173.566C220.971 173.773 220.671 173.876 220.32 173.876ZM229.341 177.999C228.452 177.875 227.77 177.534 227.295 176.976C226.427 176.005 225.993 174.971 225.993 173.876C225.993 173.752 226.003 173.504 226.024 173.132C226.045 172.739 226.417 172.243 227.14 171.644C227.884 171.024 228.618 170.559 229.341 170.249C230.085 169.939 230.881 169.763 231.728 169.722L231.666 168.048C230.364 168.875 229.351 169.288 228.628 169.288C228.483 169.288 228.204 169.267 227.791 169.226C227.398 169.164 226.944 168.854 226.427 168.296C225.6 167.428 225.187 166.457 225.187 165.382C225.187 165.155 225.208 164.793 225.249 164.297C225.311 163.801 225.497 163.15 225.807 162.344C226.138 161.538 226.561 160.877 227.078 160.36C227.615 159.823 228.142 159.523 228.659 159.461C228.845 159.44 229.052 159.43 229.279 159.43C229.651 159.43 230.147 159.471 230.767 159.554C231.408 159.637 232.369 160.267 233.65 161.445C233.898 161.92 234.022 162.437 234.022 162.995C234.022 163.222 234.001 163.45 233.96 163.677L234.084 169.319C234.415 169.195 234.714 169.133 234.983 169.133C235.086 169.133 235.376 169.247 235.851 169.474C236.037 169.763 236.13 170.084 236.13 170.435V170.652L235.851 171.241C235.314 171.53 234.725 171.675 234.084 171.675L234.115 172.605C234.115 173.101 234.063 173.659 233.96 174.279C233.877 174.899 233.34 175.674 232.348 176.604C231.377 177.534 230.374 177.999 229.341 177.999ZM229.682 175.581C229.992 175.581 230.23 175.498 230.395 175.333C231.346 174.61 231.821 173.7 231.821 172.605L231.79 172.078C230.323 172.285 229.279 172.812 228.659 173.659C228.494 173.886 228.411 174.103 228.411 174.31C228.411 174.537 228.545 174.806 228.814 175.116C229.083 175.426 229.372 175.581 229.682 175.581ZM228.566 166.622C229.021 166.622 229.434 166.529 229.806 166.343C230.405 165.93 230.819 165.444 231.046 164.886C231.273 164.328 231.439 163.667 231.542 162.902C231.315 162.571 230.974 162.282 230.519 162.034C230.292 161.931 230.064 161.879 229.837 161.879C228.969 161.879 228.339 162.396 227.946 163.429C227.781 163.884 227.698 164.359 227.698 164.855C227.698 165.062 227.729 165.413 227.791 165.909C227.853 166.384 228.111 166.622 228.566 166.622ZM259.411 173.814C259.06 173.773 258.76 173.649 258.512 173.442C258.161 172.553 257.882 165.775 257.675 153.106L253.676 153.23L253.056 152.92C252.87 152.651 252.756 152.331 252.715 151.959C252.756 151.628 252.87 151.349 253.056 151.122C253.511 150.853 254.007 150.719 254.544 150.719L262.635 150.626C263.338 150.626 263.989 150.771 264.588 151.06C264.795 151.329 264.898 151.649 264.898 152.021V152.207L264.588 152.796C264.278 153.003 263.937 153.127 263.565 153.168L260.062 152.982C260.31 165.341 260.496 171.964 260.62 172.853L260.31 173.442C260.021 173.649 259.721 173.773 259.411 173.814ZM278.135 174.062C277.804 174.021 277.525 173.897 277.298 173.69L276.864 173.039C275.5 173.659 274.239 173.969 273.082 173.969C272.999 173.969 272.741 173.969 272.307 173.969C271.894 173.948 271.346 173.773 270.664 173.442C269.982 173.091 269.352 172.636 268.773 172.078C267.864 171.231 267.409 170.032 267.409 168.482C267.409 168.255 267.43 167.883 267.471 167.366C267.616 166.023 268.184 164.865 269.176 163.894C270.085 163.005 271.232 162.561 272.617 162.561C273.485 162.561 274.353 162.726 275.221 163.057C275.221 162.292 274.952 161.714 274.415 161.321C273.444 160.639 272.503 160.298 271.594 160.298C271.325 160.298 270.964 160.36 270.509 160.484C270.075 160.587 269.6 160.66 269.083 160.701L268.37 160.36C268.163 160.112 268.06 159.802 268.06 159.43V159.244L268.432 158.593C269.114 158.138 269.982 157.911 271.036 157.911C271.491 157.911 272.007 157.963 272.586 158.066C273.185 158.169 274.002 158.49 275.035 159.027C276.089 159.544 276.833 160.319 277.267 161.352C277.722 162.385 277.959 164.07 277.98 166.405C278.001 168.74 278.455 170.972 279.344 173.101L279.034 173.69C278.765 173.897 278.466 174.021 278.135 174.062ZM273.144 171.582C273.847 171.582 274.518 171.427 275.159 171.117L276.027 170.404C275.903 169.66 275.779 168.41 275.655 166.653C274.808 165.599 273.898 165.072 272.927 165.072C272.906 165.072 272.638 165.082 272.121 165.103C271.625 165.124 271.17 165.341 270.757 165.754C270.137 166.374 269.827 167.273 269.827 168.451C269.827 168.637 269.837 168.916 269.858 169.288C269.899 169.66 270.116 170.042 270.509 170.435C270.902 170.807 271.377 171.107 271.935 171.334C272.328 171.499 272.731 171.582 273.144 171.582ZM289.419 174.372C288.53 174.372 287.683 173.948 286.877 173.101C286.154 172.357 285.689 171.324 285.482 170.001C285.255 169.05 285.141 167.201 285.141 164.452L285.11 154.749C285.11 153.592 285.12 152.744 285.141 152.207C285.327 151.546 285.699 151.215 286.257 151.215C286.96 151.215 287.383 151.587 287.528 152.331V165.258C287.528 166.891 287.59 168.141 287.714 169.009C287.879 170.869 288.468 171.799 289.481 171.799C290.163 171.799 291.258 171.541 292.767 171.024L293.387 171.303C293.594 171.551 293.697 171.861 293.697 172.233V172.419L293.263 173.163C292.147 173.969 290.866 174.372 289.419 174.372ZM301.602 173.938C300.879 173.814 300.176 173.607 299.494 173.318C298.833 173.008 298.14 172.44 297.417 171.613C296.694 170.766 296.198 169.67 295.929 168.327C295.681 167.17 295.557 166.095 295.557 165.103L295.588 163.956C295.65 162.199 296.177 160.804 297.169 159.771C298.388 158.49 299.742 157.849 301.23 157.849C301.354 157.849 301.654 157.87 302.129 157.911C302.604 157.952 303.142 158.087 303.741 158.314C304.34 158.541 305.064 159.151 305.911 160.143C306.779 161.135 307.306 162.251 307.492 163.491C307.678 164.71 307.771 165.568 307.771 166.064C307.771 166.581 307.626 166.88 307.337 166.963C307.048 167.046 303.989 167.159 298.161 167.304C298.388 168.751 298.864 169.784 299.587 170.404C300.434 171.189 301.364 171.582 302.377 171.582C302.46 171.582 302.687 171.572 303.059 171.551C303.431 171.53 303.896 171.334 304.454 170.962C305.033 170.59 305.642 170.321 306.283 170.156L306.903 170.466C307.11 170.735 307.213 171.065 307.213 171.458V171.644L306.903 172.233C305.973 172.977 305.095 173.452 304.268 173.659C303.441 173.845 302.553 173.938 301.602 173.938ZM297.851 164.948L305.322 164.638C305.239 163.026 304.826 161.889 304.082 161.228C303.338 160.546 302.449 160.205 301.416 160.205C301.189 160.205 300.868 160.246 300.455 160.329C300.042 160.412 299.608 160.691 299.153 161.166C298.719 161.621 298.409 162.137 298.223 162.716C298.037 163.274 297.913 164.018 297.851 164.948ZM320.14 173.876H319.954L319.334 173.566C319.065 173.194 318.931 172.77 318.931 172.295C318.931 172.13 318.952 171.954 318.993 171.768L319.179 169.35C319.22 168.771 319.241 168.193 319.241 167.614C319.241 166.56 319.127 165.682 318.9 164.979C318.383 163.532 317.629 162.809 316.637 162.809C316.534 162.809 316.317 162.84 315.986 162.902C315.655 162.943 315.263 163.253 314.808 163.832C314.374 164.411 313.909 165.072 313.413 165.816C312.938 166.539 312.648 167.335 312.545 168.203C312.545 170.187 312.555 171.458 312.576 172.016L312.297 172.605C312.049 172.812 311.749 172.915 311.398 172.915H311.212L310.592 172.605C310.199 170.6 309.962 168.575 309.879 166.529C309.796 164.462 309.672 162.427 309.507 160.422C309.61 159.637 310.034 159.244 310.778 159.244H310.964L311.553 159.554C311.76 160.153 311.884 160.794 311.925 161.476C311.966 162.137 312.008 162.809 312.049 163.491C312.483 162.933 312.927 162.406 313.382 161.91C314.312 160.877 315.356 160.36 316.513 160.36C316.74 160.36 317.123 160.412 317.66 160.515C318.218 160.598 318.838 160.98 319.52 161.662C320.202 162.323 320.729 163.109 321.101 164.018C321.39 164.783 321.535 165.837 321.535 167.18C321.535 167.428 321.514 168.038 321.473 169.009C321.432 169.98 321.411 170.838 321.411 171.582C321.411 172.305 321.287 172.967 321.039 173.566C320.791 173.773 320.491 173.876 320.14 173.876ZM331.269 174.062C330.38 174.062 329.533 173.638 328.727 172.791C328.004 172.047 327.539 171.024 327.332 169.722C327.125 168.399 326.96 166.126 326.836 162.902L324.604 163.026L324.015 162.716C323.767 162.427 323.643 162.096 323.643 161.724V161.569L323.953 160.949C324.325 160.68 324.759 160.546 325.255 160.546H325.906L326.96 160.515L326.929 158.996C326.929 157.384 327.043 156.289 327.27 155.71C327.518 155.503 327.818 155.4 328.169 155.4H328.355L328.975 155.71C329.202 156.041 329.316 156.402 329.316 156.795L329.285 157.136L329.347 160.422L334.276 160.298L334.865 160.577C335.072 160.825 335.175 161.135 335.175 161.507V161.693L334.865 162.282C334.08 162.551 333.232 162.685 332.323 162.685H331.703C330.856 162.685 330.029 162.737 329.223 162.84C329.347 165.775 329.45 167.728 329.533 168.699C329.636 169.67 329.843 170.404 330.153 170.9C330.38 171.293 330.773 171.489 331.331 171.489C332.013 171.489 333.108 171.231 334.617 170.714L335.237 170.993C335.444 171.241 335.547 171.551 335.547 171.923V172.109L335.113 172.853C333.997 173.659 332.716 174.062 331.269 174.062Z" fill="#1D1D1F"/>
<path d="M282.09 293.062C281.759 293.021 281.48 292.897 281.253 292.69C281.046 292.463 280.922 292.184 280.881 291.853L280.943 272.075C280.943 270.814 281.346 270.184 282.152 270.184C282.627 270.184 283.134 270.442 283.671 270.959C285.469 274.348 287.794 279.246 290.646 285.653L290.708 271.331C290.811 270.566 291.235 270.184 291.979 270.184C292.082 270.184 292.351 270.277 292.785 270.463L293.064 271.083C293.064 280.032 293.105 285.291 293.188 286.862C293.271 288.433 293.333 290.034 293.374 291.667C293.126 292.39 292.754 292.752 292.258 292.752C291.989 292.752 291.679 292.649 291.328 292.442C289.819 289.363 287.205 283.762 283.485 275.64L283.299 292.101L282.989 292.69C282.7 292.897 282.4 293.021 282.09 293.062ZM306.425 293.248H306.239L305.65 292.938C305.402 292.504 305.237 292.039 305.154 291.543C305.071 291.026 304.989 290.489 304.906 289.931C303.935 291.171 303.005 291.977 302.116 292.349C301.455 292.638 300.804 292.783 300.163 292.783C299.915 292.783 299.512 292.742 298.954 292.659C298.417 292.556 297.807 292.111 297.125 291.326C296.443 290.52 296.009 289.683 295.823 288.815C295.472 287.348 295.296 285.581 295.296 283.514C295.296 282.977 295.306 282.377 295.327 281.716C295.368 281.055 295.544 280.486 295.854 280.011C296.143 279.763 296.474 279.639 296.846 279.639H297.001L297.621 279.949C297.828 280.238 297.931 280.559 297.931 280.91V281.096C297.766 282.873 297.683 284.217 297.683 285.126C297.683 287.379 298.127 288.949 299.016 289.838C299.326 290.189 299.698 290.365 300.132 290.365C300.297 290.365 300.587 290.303 301 290.179C301.434 290.055 301.992 289.528 302.674 288.598C303.356 287.668 303.8 286.49 304.007 285.064C304.214 283.638 304.513 282.253 304.906 280.91C305.154 280.724 305.454 280.631 305.805 280.631C305.908 280.631 306.177 280.724 306.611 280.91C306.859 281.365 306.983 281.861 306.983 282.398C306.983 282.605 306.962 282.822 306.921 283.049C306.962 286.562 307.055 288.774 307.2 289.683C307.365 290.572 307.51 291.46 307.634 292.349L307.324 292.938C307.097 293.145 306.797 293.248 306.425 293.248ZM312.842 292.814H312.656L312.067 292.504C311.53 290.313 311.178 288.071 311.013 285.777C310.868 283.462 310.693 281.179 310.486 278.926C310.589 278.161 311.013 277.779 311.757 277.779H311.943L312.532 278.089C312.78 278.998 312.935 279.949 312.997 280.941C313.059 281.933 313.131 282.915 313.214 283.886C313.607 283.245 314.072 282.677 314.609 282.181C315.167 281.664 315.756 281.282 316.376 281.034C316.996 280.765 317.637 280.621 318.298 280.6C318.959 280.579 319.631 280.548 320.313 280.507L320.933 280.786C321.14 281.034 321.243 281.344 321.243 281.716V281.902L320.933 282.491C320.189 282.594 319.373 282.687 318.484 282.77C317.017 282.935 315.787 284.093 314.795 286.242C314.258 287.337 313.989 288.639 313.989 290.148L314.051 291.915L313.741 292.504C313.514 292.711 313.214 292.814 312.842 292.814ZM331.039 293.062C330.15 293.062 329.303 292.638 328.497 291.791C327.774 291.047 327.309 290.024 327.102 288.722C326.895 287.399 326.73 285.126 326.606 281.902L324.374 282.026L323.785 281.716C323.537 281.427 323.413 281.096 323.413 280.724V280.569L323.723 279.949C324.095 279.68 324.529 279.546 325.025 279.546H325.676L326.73 279.515L326.699 277.996C326.699 276.384 326.813 275.289 327.04 274.71C327.288 274.503 327.588 274.4 327.939 274.4H328.125L328.745 274.71C328.972 275.041 329.086 275.402 329.086 275.795L329.055 276.136L329.117 279.422L334.046 279.298L334.635 279.577C334.842 279.825 334.945 280.135 334.945 280.507V280.693L334.635 281.282C333.85 281.551 333.002 281.685 332.093 281.685H331.473C330.626 281.685 329.799 281.737 328.993 281.84C329.117 284.775 329.22 286.728 329.303 287.699C329.406 288.67 329.613 289.404 329.923 289.9C330.15 290.293 330.543 290.489 331.101 290.489C331.783 290.489 332.878 290.231 334.387 289.714L335.007 289.993C335.214 290.241 335.317 290.551 335.317 290.923V291.109L334.883 291.853C333.767 292.659 332.486 293.062 331.039 293.062ZM349.205 293.248H349.019L348.43 292.938C348.182 292.504 348.017 292.039 347.934 291.543C347.851 291.026 347.769 290.489 347.686 289.931C346.715 291.171 345.785 291.977 344.896 292.349C344.235 292.638 343.584 292.783 342.943 292.783C342.695 292.783 342.292 292.742 341.734 292.659C341.197 292.556 340.587 292.111 339.905 291.326C339.223 290.52 338.789 289.683 338.603 288.815C338.252 287.348 338.076 285.581 338.076 283.514C338.076 282.977 338.086 282.377 338.107 281.716C338.148 281.055 338.324 280.486 338.634 280.011C338.923 279.763 339.254 279.639 339.626 279.639H339.781L340.401 279.949C340.608 280.238 340.711 280.559 340.711 280.91V281.096C340.546 282.873 340.463 284.217 340.463 285.126C340.463 287.379 340.907 288.949 341.796 289.838C342.106 290.189 342.478 290.365 342.912 290.365C343.077 290.365 343.367 290.303 343.78 290.179C344.214 290.055 344.772 289.528 345.454 288.598C346.136 287.668 346.58 286.49 346.787 285.064C346.994 283.638 347.293 282.253 347.686 280.91C347.934 280.724 348.234 280.631 348.585 280.631C348.688 280.631 348.957 280.724 349.391 280.91C349.639 281.365 349.763 281.861 349.763 282.398C349.763 282.605 349.742 282.822 349.701 283.049C349.742 286.562 349.835 288.774 349.98 289.683C350.145 290.572 350.29 291.46 350.414 292.349L350.104 292.938C349.877 293.145 349.577 293.248 349.205 293.248ZM355.622 292.814H355.436L354.847 292.504C354.31 290.313 353.958 288.071 353.793 285.777C353.648 283.462 353.473 281.179 353.266 278.926C353.369 278.161 353.793 277.779 354.537 277.779H354.723L355.312 278.089C355.56 278.998 355.715 279.949 355.777 280.941C355.839 281.933 355.911 282.915 355.994 283.886C356.387 283.245 356.852 282.677 357.389 282.181C357.947 281.664 358.536 281.282 359.156 281.034C359.776 280.765 360.417 280.621 361.078 280.6C361.739 280.579 362.411 280.548 363.093 280.507L363.713 280.786C363.92 281.034 364.023 281.344 364.023 281.716V281.902L363.713 282.491C362.969 282.594 362.153 282.687 361.264 282.77C359.797 282.935 358.567 284.093 357.575 286.242C357.038 287.337 356.769 288.639 356.769 290.148L356.831 291.915L356.521 292.504C356.294 292.711 355.994 292.814 355.622 292.814ZM372.827 292.442H372.641L371.99 292.163C371.577 289.332 371.318 285.622 371.215 281.034C371.318 280.269 371.752 279.887 372.517 279.887H372.703L373.292 280.197C373.705 283.917 373.953 287.699 374.036 291.543L373.726 292.163C373.478 292.349 373.178 292.442 372.827 292.442ZM372.114 277.655C371.639 277.572 371.205 277.324 370.812 276.911C370.44 276.477 370.254 275.981 370.254 275.423C370.254 275.361 370.264 275.165 370.285 274.834C370.306 274.483 370.533 274.111 370.967 273.718C371.298 273.408 371.659 273.253 372.052 273.253C372.693 273.253 373.292 273.542 373.85 274.121C374.181 274.493 374.346 274.906 374.346 275.361C374.346 275.464 374.305 275.702 374.222 276.074C374.16 276.425 373.943 276.766 373.571 277.097C373.199 277.428 372.713 277.614 372.114 277.655ZM391.21 292.876H391.024L390.404 292.566C390.135 292.194 390.001 291.77 390.001 291.295C390.001 291.13 390.022 290.954 390.063 290.768L390.249 288.35C390.29 287.771 390.311 287.193 390.311 286.614C390.311 285.56 390.197 284.682 389.97 283.979C389.453 282.532 388.699 281.809 387.707 281.809C387.604 281.809 387.387 281.84 387.056 281.902C386.725 281.943 386.333 282.253 385.878 282.832C385.444 283.411 384.979 284.072 384.483 284.816C384.008 285.539 383.718 286.335 383.615 287.203C383.615 289.187 383.625 290.458 383.646 291.016L383.367 291.605C383.119 291.812 382.819 291.915 382.468 291.915H382.282L381.662 291.605C381.269 289.6 381.032 287.575 380.949 285.529C380.866 283.462 380.742 281.427 380.577 279.422C380.68 278.637 381.104 278.244 381.848 278.244H382.034L382.623 278.554C382.83 279.153 382.954 279.794 382.995 280.476C383.036 281.137 383.078 281.809 383.119 282.491C383.553 281.933 383.997 281.406 384.452 280.91C385.382 279.877 386.426 279.36 387.583 279.36C387.81 279.36 388.193 279.412 388.73 279.515C389.288 279.598 389.908 279.98 390.59 280.662C391.272 281.323 391.799 282.109 392.171 283.018C392.46 283.783 392.605 284.837 392.605 286.18C392.605 286.428 392.584 287.038 392.543 288.009C392.502 288.98 392.481 289.838 392.481 290.582C392.481 291.305 392.357 291.967 392.109 292.566C391.861 292.773 391.561 292.876 391.21 292.876ZM400.231 296.999C399.342 296.875 398.66 296.534 398.185 295.976C397.317 295.005 396.883 293.971 396.883 292.876C396.883 292.752 396.893 292.504 396.914 292.132C396.935 291.739 397.307 291.243 398.03 290.644C398.774 290.024 399.508 289.559 400.231 289.249C400.975 288.939 401.771 288.763 402.618 288.722L402.556 287.048C401.254 287.875 400.241 288.288 399.518 288.288C399.373 288.288 399.094 288.267 398.681 288.226C398.288 288.164 397.834 287.854 397.317 287.296C396.49 286.428 396.077 285.457 396.077 284.382C396.077 284.155 396.098 283.793 396.139 283.297C396.201 282.801 396.387 282.15 396.697 281.344C397.028 280.538 397.451 279.877 397.968 279.36C398.505 278.823 399.032 278.523 399.549 278.461C399.735 278.44 399.942 278.43 400.169 278.43C400.541 278.43 401.037 278.471 401.657 278.554C402.298 278.637 403.259 279.267 404.54 280.445C404.788 280.92 404.912 281.437 404.912 281.995C404.912 282.222 404.891 282.45 404.85 282.677L404.974 288.319C405.305 288.195 405.604 288.133 405.873 288.133C405.976 288.133 406.266 288.247 406.741 288.474C406.927 288.763 407.02 289.084 407.02 289.435V289.652L406.741 290.241C406.204 290.53 405.615 290.675 404.974 290.675L405.005 291.605C405.005 292.101 404.953 292.659 404.85 293.279C404.767 293.899 404.23 294.674 403.238 295.604C402.267 296.534 401.264 296.999 400.231 296.999ZM400.572 294.581C400.882 294.581 401.12 294.498 401.285 294.333C402.236 293.61 402.711 292.7 402.711 291.605L402.68 291.078C401.213 291.285 400.169 291.812 399.549 292.659C399.384 292.886 399.301 293.103 399.301 293.31C399.301 293.537 399.435 293.806 399.704 294.116C399.973 294.426 400.262 294.581 400.572 294.581ZM399.456 285.622C399.911 285.622 400.324 285.529 400.696 285.343C401.295 284.93 401.709 284.444 401.936 283.886C402.163 283.328 402.329 282.667 402.432 281.902C402.205 281.571 401.864 281.282 401.409 281.034C401.182 280.931 400.954 280.879 400.727 280.879C399.859 280.879 399.229 281.396 398.836 282.429C398.671 282.884 398.588 283.359 398.588 283.855C398.588 284.062 398.619 284.413 398.681 284.909C398.743 285.384 399.001 285.622 399.456 285.622ZM430.301 292.814C429.95 292.773 429.65 292.649 429.402 292.442C429.051 291.553 428.772 284.775 428.565 272.106L424.566 272.23L423.946 271.92C423.76 271.651 423.646 271.331 423.605 270.959C423.646 270.628 423.76 270.349 423.946 270.122C424.401 269.853 424.897 269.719 425.434 269.719L433.525 269.626C434.228 269.626 434.879 269.771 435.478 270.06C435.685 270.329 435.788 270.649 435.788 271.021V271.207L435.478 271.796C435.168 272.003 434.827 272.127 434.455 272.168L430.952 271.982C431.2 284.341 431.386 290.964 431.51 291.853L431.2 292.442C430.911 292.649 430.611 292.773 430.301 292.814ZM449.025 293.062C448.694 293.021 448.415 292.897 448.188 292.69L447.754 292.039C446.39 292.659 445.129 292.969 443.972 292.969C443.889 292.969 443.631 292.969 443.197 292.969C442.784 292.948 442.236 292.773 441.554 292.442C440.872 292.091 440.242 291.636 439.663 291.078C438.754 290.231 438.299 289.032 438.299 287.482C438.299 287.255 438.32 286.883 438.361 286.366C438.506 285.023 439.074 283.865 440.066 282.894C440.975 282.005 442.122 281.561 443.507 281.561C444.375 281.561 445.243 281.726 446.111 282.057C446.111 281.292 445.842 280.714 445.305 280.321C444.334 279.639 443.393 279.298 442.484 279.298C442.215 279.298 441.854 279.36 441.399 279.484C440.965 279.587 440.49 279.66 439.973 279.701L439.26 279.36C439.053 279.112 438.95 278.802 438.95 278.43V278.244L439.322 277.593C440.004 277.138 440.872 276.911 441.926 276.911C442.381 276.911 442.897 276.963 443.476 277.066C444.075 277.169 444.892 277.49 445.925 278.027C446.979 278.544 447.723 279.319 448.157 280.352C448.612 281.385 448.849 283.07 448.87 285.405C448.891 287.74 449.345 289.972 450.234 292.101L449.924 292.69C449.655 292.897 449.356 293.021 449.025 293.062ZM444.034 290.582C444.737 290.582 445.408 290.427 446.049 290.117L446.917 289.404C446.793 288.66 446.669 287.41 446.545 285.653C445.698 284.599 444.788 284.072 443.817 284.072C443.796 284.072 443.528 284.082 443.011 284.103C442.515 284.124 442.06 284.341 441.647 284.754C441.027 285.374 440.717 286.273 440.717 287.451C440.717 287.637 440.727 287.916 440.748 288.288C440.789 288.66 441.006 289.042 441.399 289.435C441.792 289.807 442.267 290.107 442.825 290.334C443.218 290.499 443.621 290.582 444.034 290.582ZM460.309 293.372C459.42 293.372 458.573 292.948 457.767 292.101C457.044 291.357 456.579 290.324 456.372 289.001C456.145 288.05 456.031 286.201 456.031 283.452L456 273.749C456 272.592 456.01 271.744 456.031 271.207C456.217 270.546 456.589 270.215 457.147 270.215C457.85 270.215 458.273 270.587 458.418 271.331V284.258C458.418 285.891 458.48 287.141 458.604 288.009C458.769 289.869 459.358 290.799 460.371 290.799C461.053 290.799 462.148 290.541 463.657 290.024L464.277 290.303C464.484 290.551 464.587 290.861 464.587 291.233V291.419L464.153 292.163C463.037 292.969 461.756 293.372 460.309 293.372ZM472.492 292.938C471.769 292.814 471.066 292.607 470.384 292.318C469.723 292.008 469.03 291.44 468.307 290.613C467.584 289.766 467.088 288.67 466.819 287.327C466.571 286.17 466.447 285.095 466.447 284.103L466.478 282.956C466.54 281.199 467.067 279.804 468.059 278.771C469.278 277.49 470.632 276.849 472.12 276.849C472.244 276.849 472.544 276.87 473.019 276.911C473.494 276.952 474.032 277.087 474.631 277.314C475.23 277.541 475.954 278.151 476.801 279.143C477.669 280.135 478.196 281.251 478.382 282.491C478.568 283.71 478.661 284.568 478.661 285.064C478.661 285.581 478.516 285.88 478.227 285.963C477.938 286.046 474.879 286.159 469.051 286.304C469.278 287.751 469.754 288.784 470.477 289.404C471.324 290.189 472.254 290.582 473.267 290.582C473.35 290.582 473.577 290.572 473.949 290.551C474.321 290.53 474.786 290.334 475.344 289.962C475.923 289.59 476.532 289.321 477.173 289.156L477.793 289.466C478 289.735 478.103 290.065 478.103 290.458V290.644L477.793 291.233C476.863 291.977 475.985 292.452 475.158 292.659C474.331 292.845 473.443 292.938 472.492 292.938ZM468.741 283.948L476.212 283.638C476.129 282.026 475.716 280.889 474.972 280.228C474.228 279.546 473.339 279.205 472.306 279.205C472.079 279.205 471.758 279.246 471.345 279.329C470.932 279.412 470.498 279.691 470.043 280.166C469.609 280.621 469.299 281.137 469.113 281.716C468.927 282.274 468.803 283.018 468.741 283.948ZM491.03 292.876H490.844L490.224 292.566C489.955 292.194 489.821 291.77 489.821 291.295C489.821 291.13 489.842 290.954 489.883 290.768L490.069 288.35C490.11 287.771 490.131 287.193 490.131 286.614C490.131 285.56 490.017 284.682 489.79 283.979C489.273 282.532 488.519 281.809 487.527 281.809C487.424 281.809 487.207 281.84 486.876 281.902C486.545 281.943 486.153 282.253 485.698 282.832C485.264 283.411 484.799 284.072 484.303 284.816C483.828 285.539 483.538 286.335 483.435 287.203C483.435 289.187 483.445 290.458 483.466 291.016L483.187 291.605C482.939 291.812 482.639 291.915 482.288 291.915H482.102L481.482 291.605C481.089 289.6 480.852 287.575 480.769 285.529C480.686 283.462 480.562 281.427 480.397 279.422C480.5 278.637 480.924 278.244 481.668 278.244H481.854L482.443 278.554C482.65 279.153 482.774 279.794 482.815 280.476C482.856 281.137 482.898 281.809 482.939 282.491C483.373 281.933 483.817 281.406 484.272 280.91C485.202 279.877 486.246 279.36 487.403 279.36C487.63 279.36 488.013 279.412 488.55 279.515C489.108 279.598 489.728 279.98 490.41 280.662C491.092 281.323 491.619 282.109 491.991 283.018C492.28 283.783 492.425 284.837 492.425 286.18C492.425 286.428 492.404 287.038 492.363 288.009C492.322 288.98 492.301 289.838 492.301 290.582C492.301 291.305 492.177 291.967 491.929 292.566C491.681 292.773 491.381 292.876 491.03 292.876ZM502.159 293.062C501.27 293.062 500.423 292.638 499.617 291.791C498.894 291.047 498.429 290.024 498.222 288.722C498.015 287.399 497.85 285.126 497.726 281.902L495.494 282.026L494.905 281.716C494.657 281.427 494.533 281.096 494.533 280.724V280.569L494.843 279.949C495.215 279.68 495.649 279.546 496.145 279.546H496.796L497.85 279.515L497.819 277.996C497.819 276.384 497.933 275.289 498.16 274.71C498.408 274.503 498.708 274.4 499.059 274.4H499.245L499.865 274.71C500.092 275.041 500.206 275.402 500.206 275.795L500.175 276.136L500.237 279.422L505.166 279.298L505.755 279.577C505.962 279.825 506.065 280.135 506.065 280.507V280.693L505.755 281.282C504.97 281.551 504.122 281.685 503.213 281.685H502.593C501.746 281.685 500.919 281.737 500.113 281.84C500.237 284.775 500.34 286.728 500.423 287.699C500.526 288.67 500.733 289.404 501.043 289.9C501.27 290.293 501.663 290.489 502.221 290.489C502.903 290.489 503.998 290.231 505.507 289.714L506.127 289.993C506.334 290.241 506.437 290.551 506.437 290.923V291.109L506.003 291.853C504.887 292.659 503.606 293.062 502.159 293.062Z" fill="#1D1D1F"/>
<path d="M9.482 303.442C8.69667 303.38 7.97333 303.173 7.312 302.822C6.67133 302.471 5.89633 301.809 4.987 300.838C4.09833 299.867 3.42667 298.503 2.972 296.746C2.55867 295.196 2.352 293.698 2.352 292.251C2.352 292.065 2.36233 291.528 2.383 290.639C2.40367 289.75 2.57933 288.717 2.91 287.539C3.24067 286.34 3.716 285.379 4.336 284.656C5.41067 283.416 6.46467 282.589 7.498 282.176C8.304 281.825 9.21333 281.649 10.226 281.649C10.5773 281.649 11.0113 281.68 11.528 281.742C12.0653 281.804 12.613 282.083 13.171 282.579C13.5017 282.889 13.667 283.282 13.667 283.757V283.912L13.357 284.501C13.109 284.708 12.8093 284.811 12.458 284.811H12.272C11.342 284.253 10.5773 283.974 9.978 283.974C9.358 283.974 8.60367 284.294 7.715 284.935C6.971 285.493 6.36133 286.123 5.886 286.826C5.12133 287.963 4.739 289.585 4.739 291.693C4.739 292.168 4.77 292.83 4.832 293.677C4.91467 294.524 5.111 295.496 5.421 296.591C5.731 297.666 6.15467 298.513 6.692 299.133C7.25 299.732 7.76667 300.187 8.242 300.497C8.71733 300.786 9.22367 300.931 9.761 300.931C9.78167 300.931 9.93667 300.931 10.226 300.931C10.536 300.91 11.0527 300.611 11.776 300.032L12.52 299.97L13.109 300.28C13.3157 300.549 13.419 300.859 13.419 301.21V301.396C12.4063 302.45 11.6313 303.06 11.094 303.225C10.5773 303.37 10.04 303.442 9.482 303.442ZM19.712 303.814H19.526L18.937 303.504C18.3997 301.313 18.0483 299.071 17.883 296.777C17.7383 294.462 17.5627 292.179 17.356 289.926C17.4593 289.161 17.883 288.779 18.627 288.779H18.813L19.402 289.089C19.65 289.998 19.805 290.949 19.867 291.941C19.929 292.933 20.0013 293.915 20.084 294.886C20.4767 294.245 20.9417 293.677 21.479 293.181C22.037 292.664 22.626 292.282 23.246 292.034C23.866 291.765 24.5067 291.621 25.168 291.6C25.8293 291.579 26.501 291.548 27.183 291.507L27.803 291.786C28.0097 292.034 28.113 292.344 28.113 292.716V292.902L27.803 293.491C27.059 293.594 26.2427 293.687 25.354 293.77C23.8867 293.935 22.657 295.093 21.665 297.242C21.1277 298.337 20.859 299.639 20.859 301.148L20.921 302.915L20.611 303.504C20.3837 303.711 20.084 303.814 19.712 303.814ZM36.762 303.938C36.0387 303.814 35.336 303.607 34.654 303.318C33.9927 303.008 33.3003 302.44 32.577 301.613C31.8537 300.766 31.3577 299.67 31.089 298.327C30.841 297.17 30.717 296.095 30.717 295.103L30.748 293.956C30.81 292.199 31.337 290.804 32.329 289.771C33.5483 288.49 34.902 287.849 36.39 287.849C36.514 287.849 36.8137 287.87 37.289 287.911C37.7643 287.952 38.3017 288.087 38.901 288.314C39.5003 288.541 40.2237 289.151 41.071 290.143C41.939 291.135 42.466 292.251 42.652 293.491C42.838 294.71 42.931 295.568 42.931 296.064C42.931 296.581 42.7863 296.88 42.497 296.963C42.2077 297.046 39.149 297.159 33.321 297.304C33.5483 298.751 34.0237 299.784 34.747 300.404C35.5943 301.189 36.5243 301.582 37.537 301.582C37.6197 301.582 37.847 301.572 38.219 301.551C38.591 301.53 39.056 301.334 39.614 300.962C40.1927 300.59 40.8023 300.321 41.443 300.156L42.063 300.466C42.2697 300.735 42.373 301.065 42.373 301.458V301.644L42.063 302.233C41.133 302.977 40.2547 303.452 39.428 303.659C38.6013 303.845 37.7127 303.938 36.762 303.938ZM33.011 294.948L40.482 294.638C40.3993 293.026 39.986 291.889 39.242 291.228C38.498 290.546 37.6093 290.205 36.576 290.205C36.3487 290.205 36.0283 290.246 35.615 290.329C35.2017 290.412 34.7677 290.691 34.313 291.166C33.879 291.621 33.569 292.137 33.383 292.716C33.197 293.274 33.073 294.018 33.011 294.948ZM56.075 304.062C55.7443 304.021 55.4653 303.897 55.238 303.69L54.804 303.039C53.44 303.659 52.1793 303.969 51.022 303.969C50.9393 303.969 50.681 303.969 50.247 303.969C49.8337 303.948 49.286 303.773 48.604 303.442C47.922 303.091 47.2917 302.636 46.713 302.078C45.8037 301.231 45.349 300.032 45.349 298.482C45.349 298.255 45.3697 297.883 45.411 297.366C45.5557 296.023 46.124 294.865 47.116 293.894C48.0253 293.005 49.1723 292.561 50.557 292.561C51.425 292.561 52.293 292.726 53.161 293.057C53.161 292.292 52.8923 291.714 52.355 291.321C51.3837 290.639 50.4433 290.298 49.534 290.298C49.2653 290.298 48.9037 290.36 48.449 290.484C48.015 290.587 47.5397 290.66 47.023 290.701L46.31 290.36C46.1033 290.112 46 289.802 46 289.43V289.244L46.372 288.593C47.054 288.138 47.922 287.911 48.976 287.911C49.4307 287.911 49.9473 287.963 50.526 288.066C51.1253 288.169 51.9417 288.49 52.975 289.027C54.029 289.544 54.773 290.319 55.207 291.352C55.6617 292.385 55.8993 294.07 55.92 296.405C55.9407 298.74 56.3953 300.972 57.284 303.101L56.974 303.69C56.7053 303.897 56.4057 304.021 56.075 304.062ZM51.084 301.582C51.7867 301.582 52.4583 301.427 53.099 301.117L53.967 300.404C53.843 299.66 53.719 298.41 53.595 296.653C52.7477 295.599 51.8383 295.072 50.867 295.072C50.8463 295.072 50.5777 295.082 50.061 295.103C49.565 295.124 49.1103 295.341 48.697 295.754C48.077 296.374 47.767 297.273 47.767 298.451C47.767 298.637 47.7773 298.916 47.798 299.288C47.8393 299.66 48.0563 300.042 48.449 300.435C48.8417 300.807 49.317 301.107 49.875 301.334C50.2677 301.499 50.6707 301.582 51.084 301.582ZM66.429 304.062C65.5403 304.062 64.693 303.638 63.887 302.791C63.1637 302.047 62.6987 301.024 62.492 299.722C62.2853 298.399 62.12 296.126 61.996 292.902L59.764 293.026L59.175 292.716C58.927 292.427 58.803 292.096 58.803 291.724V291.569L59.113 290.949C59.485 290.68 59.919 290.546 60.415 290.546H61.066L62.12 290.515L62.089 288.996C62.089 287.384 62.2027 286.289 62.43 285.71C62.678 285.503 62.9777 285.4 63.329 285.4H63.515L64.135 285.71C64.3623 286.041 64.476 286.402 64.476 286.795L64.445 287.136L64.507 290.422L69.436 290.298L70.025 290.577C70.2317 290.825 70.335 291.135 70.335 291.507V291.693L70.025 292.282C69.2397 292.551 68.3923 292.685 67.483 292.685H66.863C66.0157 292.685 65.189 292.737 64.383 292.84C64.507 295.775 64.6103 297.728 64.693 298.699C64.7963 299.67 65.003 300.404 65.313 300.9C65.5403 301.293 65.933 301.489 66.491 301.489C67.173 301.489 68.2683 301.231 69.777 300.714L70.397 300.993C70.6037 301.241 70.707 301.551 70.707 301.923V302.109L70.273 302.853C69.157 303.659 67.8757 304.062 66.429 304.062ZM79.697 303.442H79.511L78.86 303.163C78.4467 300.332 78.1883 296.622 78.085 292.034C78.1883 291.269 78.6223 290.887 79.387 290.887H79.573L80.162 291.197C80.5753 294.917 80.8233 298.699 80.906 302.543L80.596 303.163C80.348 303.349 80.0483 303.442 79.697 303.442ZM78.984 288.655C78.5087 288.572 78.0747 288.324 77.682 287.911C77.31 287.477 77.124 286.981 77.124 286.423C77.124 286.361 77.1343 286.165 77.155 285.834C77.1757 285.483 77.403 285.111 77.837 284.718C78.1677 284.408 78.5293 284.253 78.922 284.253C79.5627 284.253 80.162 284.542 80.72 285.121C81.0507 285.493 81.216 285.906 81.216 286.361C81.216 286.464 81.1747 286.702 81.092 287.074C81.03 287.425 80.813 287.766 80.441 288.097C80.069 288.428 79.5833 288.614 78.984 288.655ZM98.08 303.876H97.894L97.274 303.566C97.0053 303.194 96.871 302.77 96.871 302.295C96.871 302.13 96.8917 301.954 96.933 301.768L97.119 299.35C97.1603 298.771 97.181 298.193 97.181 297.614C97.181 296.56 97.0673 295.682 96.84 294.979C96.3233 293.532 95.569 292.809 94.577 292.809C94.4737 292.809 94.2567 292.84 93.926 292.902C93.5953 292.943 93.2027 293.253 92.748 293.832C92.314 294.411 91.849 295.072 91.353 295.816C90.8777 296.539 90.5883 297.335 90.485 298.203C90.485 300.187 90.4953 301.458 90.516 302.016L90.237 302.605C89.989 302.812 89.6893 302.915 89.338 302.915H89.152L88.532 302.605C88.1393 300.6 87.9017 298.575 87.819 296.529C87.7363 294.462 87.6123 292.427 87.447 290.422C87.5503 289.637 87.974 289.244 88.718 289.244H88.904L89.493 289.554C89.6997 290.153 89.8237 290.794 89.865 291.476C89.9063 292.137 89.9477 292.809 89.989 293.491C90.423 292.933 90.8673 292.406 91.322 291.91C92.252 290.877 93.2957 290.36 94.453 290.36C94.6803 290.36 95.0627 290.412 95.6 290.515C96.158 290.598 96.778 290.98 97.46 291.662C98.142 292.323 98.669 293.109 99.041 294.018C99.3303 294.783 99.475 295.837 99.475 297.18C99.475 297.428 99.4543 298.038 99.413 299.009C99.3717 299.98 99.351 300.838 99.351 301.582C99.351 302.305 99.227 302.967 98.979 303.566C98.731 303.773 98.4313 303.876 98.08 303.876ZM107.101 307.999C106.212 307.875 105.53 307.534 105.055 306.976C104.187 306.005 103.753 304.971 103.753 303.876C103.753 303.752 103.763 303.504 103.784 303.132C103.805 302.739 104.177 302.243 104.9 301.644C105.644 301.024 106.378 300.559 107.101 300.249C107.845 299.939 108.641 299.763 109.488 299.722L109.426 298.048C108.124 298.875 107.111 299.288 106.388 299.288C106.243 299.288 105.964 299.267 105.551 299.226C105.158 299.164 104.704 298.854 104.187 298.296C103.36 297.428 102.947 296.457 102.947 295.382C102.947 295.155 102.968 294.793 103.009 294.297C103.071 293.801 103.257 293.15 103.567 292.344C103.898 291.538 104.321 290.877 104.838 290.36C105.375 289.823 105.902 289.523 106.419 289.461C106.605 289.44 106.812 289.43 107.039 289.43C107.411 289.43 107.907 289.471 108.527 289.554C109.168 289.637 110.129 290.267 111.41 291.445C111.658 291.92 111.782 292.437 111.782 292.995C111.782 293.222 111.761 293.45 111.72 293.677L111.844 299.319C112.175 299.195 112.474 299.133 112.743 299.133C112.846 299.133 113.136 299.247 113.611 299.474C113.797 299.763 113.89 300.084 113.89 300.435V300.652L113.611 301.241C113.074 301.53 112.485 301.675 111.844 301.675L111.875 302.605C111.875 303.101 111.823 303.659 111.72 304.279C111.637 304.899 111.1 305.674 110.108 306.604C109.137 307.534 108.134 307.999 107.101 307.999ZM107.442 305.581C107.752 305.581 107.99 305.498 108.155 305.333C109.106 304.61 109.581 303.7 109.581 302.605L109.55 302.078C108.083 302.285 107.039 302.812 106.419 303.659C106.254 303.886 106.171 304.103 106.171 304.31C106.171 304.537 106.305 304.806 106.574 305.116C106.843 305.426 107.132 305.581 107.442 305.581ZM106.326 296.622C106.781 296.622 107.194 296.529 107.566 296.343C108.165 295.93 108.579 295.444 108.806 294.886C109.033 294.328 109.199 293.667 109.302 292.902C109.075 292.571 108.734 292.282 108.279 292.034C108.052 291.931 107.824 291.879 107.597 291.879C106.729 291.879 106.099 292.396 105.706 293.429C105.541 293.884 105.458 294.359 105.458 294.855C105.458 295.062 105.489 295.413 105.551 295.909C105.613 296.384 105.871 296.622 106.326 296.622ZM137.388 304.248C136.52 304.124 135.652 304.031 134.784 303.969C133.916 303.907 133.079 303.731 132.273 303.442C132.087 303.215 131.994 302.925 131.994 302.574V302.357L132.273 301.768C132.604 301.541 132.986 301.427 133.42 301.427L135.311 301.644L135.187 283.85H132.335L131.56 283.478C131.353 283.189 131.25 282.868 131.25 282.517V282.331L131.56 281.711C132.221 281.484 132.934 281.37 133.699 281.37L140.736 281.587L141.325 281.897C141.532 282.145 141.635 282.445 141.635 282.796V282.982L141.325 283.602C141.056 283.809 140.757 283.933 140.426 283.974L137.574 283.912L137.698 301.892L141.046 301.706L141.635 302.016C141.842 302.243 141.945 302.543 141.945 302.915V303.101L141.635 303.69C140.994 303.979 140.312 304.145 139.589 304.186C138.886 304.227 138.153 304.248 137.388 304.248ZM151.059 304.062H150.873L150.222 303.752C149.953 303.318 149.819 302.76 149.819 302.078C149.819 301.871 149.85 301.468 149.912 300.869C149.974 300.27 150.036 299.402 150.098 298.265C150.181 297.108 150.222 296.023 150.222 295.01C150.222 293.501 150.026 292.747 149.633 292.747C149.488 292.747 149.292 292.933 149.044 293.305C148.817 293.656 148.465 294.287 147.99 295.196C147.535 296.105 147.256 297.273 147.153 298.699C147.07 300.104 146.926 301.613 146.719 303.225C146.471 303.411 146.171 303.504 145.82 303.504C145.717 303.504 145.448 303.411 145.014 303.225C144.621 301.096 144.332 298.926 144.146 296.715C143.96 294.483 143.795 292.282 143.65 290.112L143.929 289.492C144.239 289.285 144.59 289.182 144.983 289.182H145.076L145.696 289.492C145.944 290.071 146.089 290.701 146.13 291.383C146.171 292.065 146.213 292.726 146.254 293.367C146.647 292.478 147.174 291.672 147.835 290.949C148.372 290.35 148.91 290.05 149.447 290.05C149.571 290.05 149.819 290.091 150.191 290.174C150.584 290.257 150.935 290.474 151.245 290.825C151.576 291.176 151.875 291.559 152.144 291.972C152.95 291.001 153.901 290.515 154.996 290.515C155.513 290.515 156.009 290.711 156.484 291.104C157.414 291.91 157.879 293.636 157.879 296.281C157.879 296.963 157.848 297.955 157.786 299.257C157.745 300.538 157.724 301.458 157.724 302.016C157.724 302.574 157.6 303.091 157.352 303.566C157.104 303.773 156.804 303.876 156.453 303.876H156.267L155.647 303.566C155.378 303.235 155.244 302.853 155.244 302.419L155.306 301.954C155.43 298.647 155.492 296.488 155.492 295.475C155.492 294.483 155.389 293.77 155.182 293.336C155.079 293.109 154.944 292.995 154.779 292.995C154.655 292.995 154.448 293.098 154.159 293.305C153.89 293.512 153.601 294.08 153.291 295.01C153.002 295.94 152.764 297.232 152.578 298.885C152.413 300.518 152.206 302.14 151.958 303.752C151.71 303.959 151.41 304.062 151.059 304.062ZM160.731 307.875H160.545L159.956 307.565C159.708 307.255 159.563 306.893 159.522 306.48L159.119 290.887C159.16 290.577 159.274 290.298 159.46 290.05C159.749 289.843 160.07 289.74 160.421 289.74H160.607L161.227 290.05L161.351 290.36C162.963 289.492 164.492 289.058 165.939 289.058C166.187 289.058 166.621 289.089 167.241 289.151C168.212 289.254 169.297 290.019 170.496 291.445C171.24 292.354 171.612 293.935 171.612 296.188C171.612 297.304 171.467 298.42 171.178 299.536C170.971 300.342 170.434 301.086 169.566 301.768C168.202 302.822 166.704 303.349 165.071 303.349C164.038 303.349 162.973 303.184 161.878 302.853L161.94 306.976L161.661 307.565C161.413 307.772 161.103 307.875 160.731 307.875ZM165.133 300.962C165.732 300.962 166.28 300.859 166.776 300.652C167.169 300.404 167.623 300.053 168.14 299.598C168.677 299.123 169.008 298.492 169.132 297.707C169.235 297.108 169.287 296.529 169.287 295.971C169.287 295.785 169.266 295.465 169.225 295.01C169.204 294.535 169.08 294.028 168.853 293.491C168.626 292.933 168.243 292.416 167.706 291.941C167.251 291.548 166.735 291.352 166.156 291.352C166.032 291.352 165.763 291.383 165.35 291.445C164.937 291.486 164.441 291.621 163.862 291.848C163.283 292.055 162.591 292.644 161.785 293.615L161.878 300.28C163.035 300.735 164.12 300.962 165.133 300.962ZM184.415 304.062C184.084 304.021 183.805 303.897 183.578 303.69L183.144 303.039C181.78 303.659 180.519 303.969 179.362 303.969C179.279 303.969 179.021 303.969 178.587 303.969C178.174 303.948 177.626 303.773 176.944 303.442C176.262 303.091 175.632 302.636 175.053 302.078C174.144 301.231 173.689 300.032 173.689 298.482C173.689 298.255 173.71 297.883 173.751 297.366C173.896 296.023 174.464 294.865 175.456 293.894C176.365 293.005 177.512 292.561 178.897 292.561C179.765 292.561 180.633 292.726 181.501 293.057C181.501 292.292 181.232 291.714 180.695 291.321C179.724 290.639 178.783 290.298 177.874 290.298C177.605 290.298 177.244 290.36 176.789 290.484C176.355 290.587 175.88 290.66 175.363 290.701L174.65 290.36C174.443 290.112 174.34 289.802 174.34 289.43V289.244L174.712 288.593C175.394 288.138 176.262 287.911 177.316 287.911C177.771 287.911 178.287 287.963 178.866 288.066C179.465 288.169 180.282 288.49 181.315 289.027C182.369 289.544 183.113 290.319 183.547 291.352C184.002 292.385 184.239 294.07 184.26 296.405C184.281 298.74 184.735 300.972 185.624 303.101L185.314 303.69C185.045 303.897 184.746 304.021 184.415 304.062ZM179.424 301.582C180.127 301.582 180.798 301.427 181.439 301.117L182.307 300.404C182.183 299.66 182.059 298.41 181.935 296.653C181.088 295.599 180.178 295.072 179.207 295.072C179.186 295.072 178.918 295.082 178.401 295.103C177.905 295.124 177.45 295.341 177.037 295.754C176.417 296.374 176.107 297.273 176.107 298.451C176.107 298.637 176.117 298.916 176.138 299.288C176.179 299.66 176.396 300.042 176.789 300.435C177.182 300.807 177.657 301.107 178.215 301.334C178.608 301.499 179.011 301.582 179.424 301.582ZM194.18 303.535C193.291 303.535 192.454 303.308 191.669 302.853C191.07 302.522 190.408 301.933 189.685 301.086C188.962 300.218 188.435 299.071 188.104 297.645C187.835 296.591 187.701 295.651 187.701 294.824C187.701 294.555 187.742 294.111 187.825 293.491C187.97 292.189 188.59 290.856 189.685 289.492C190.863 288.066 192.382 287.353 194.242 287.353C194.407 287.353 194.769 287.384 195.327 287.446C195.906 287.487 196.515 287.746 197.156 288.221C197.487 288.593 197.652 288.975 197.652 289.368V289.492L197.342 290.112C197.073 290.319 196.743 290.422 196.35 290.422H196.257C195.678 289.967 195.089 289.74 194.49 289.74C194.345 289.74 194.046 289.781 193.591 289.864C192.392 290.091 191.504 290.691 190.925 291.662C190.367 292.613 190.088 293.718 190.088 294.979C190.088 295.64 190.212 296.415 190.46 297.304C190.667 298.11 191.028 298.854 191.545 299.536C192.31 300.59 193.271 301.117 194.428 301.117C194.593 301.117 194.852 301.096 195.203 301.055C195.575 300.993 195.999 300.828 196.474 300.559C196.97 300.29 197.518 300.135 198.117 300.094L198.737 300.404C198.944 300.652 199.047 300.962 199.047 301.334V301.52L198.737 302.109C197.146 303.06 195.627 303.535 194.18 303.535ZM209.029 304.062C208.14 304.062 207.293 303.638 206.487 302.791C205.764 302.047 205.299 301.024 205.092 299.722C204.885 298.399 204.72 296.126 204.596 292.902L202.364 293.026L201.775 292.716C201.527 292.427 201.403 292.096 201.403 291.724V291.569L201.713 290.949C202.085 290.68 202.519 290.546 203.015 290.546H203.666L204.72 290.515L204.689 288.996C204.689 287.384 204.803 286.289 205.03 285.71C205.278 285.503 205.578 285.4 205.929 285.4H206.115L206.735 285.71C206.962 286.041 207.076 286.402 207.076 286.795L207.045 287.136L207.107 290.422L212.036 290.298L212.625 290.577C212.832 290.825 212.935 291.135 212.935 291.507V291.693L212.625 292.282C211.84 292.551 210.992 292.685 210.083 292.685H209.463C208.616 292.685 207.789 292.737 206.983 292.84C207.107 295.775 207.21 297.728 207.293 298.699C207.396 299.67 207.603 300.404 207.913 300.9C208.14 301.293 208.533 301.489 209.091 301.489C209.773 301.489 210.868 301.231 212.377 300.714L212.997 300.993C213.204 301.241 213.307 301.551 213.307 301.923V302.109L212.873 302.853C211.757 303.659 210.476 304.062 209.029 304.062Z" fill="#1D1D1F"/>
<path d="M404 320.452C325.058 393.385 208 419.749 100 335.5" stroke="#00D959" stroke-width="8" stroke-linecap="round" stroke-linejoin="round"/>
<path d="M320 62.833C363.5 62.833 401.507 91.5785 417 143.333" stroke="#00D959" stroke-width="8" stroke-linecap="round" stroke-linejoin="round"/>
<path d="M84.0001 169C96 121.5 104 89.5 159 63.0001" stroke="#00D959" stroke-width="8" stroke-linecap="round" stroke-linejoin="round"/>
<path d="M426.611 216.416C427.228 216.144 427.752 215.696 428.118 215.129C428.484 214.562 428.675 213.901 428.668 213.226C428.661 212.552 428.456 211.894 428.079 211.335C427.701 210.776 427.168 210.339 426.545 210.08L396.979 196.622C396.08 196.212 395.104 196 394.116 196C393.128 196 392.152 196.212 391.253 196.622L361.69 210.066C361.076 210.335 360.554 210.777 360.187 211.337C359.82 211.898 359.625 212.554 359.625 213.224C359.625 213.894 359.82 214.549 360.187 215.11C360.554 215.671 361.076 216.113 361.69 216.381L391.253 229.853C392.152 230.263 393.128 230.475 394.116 230.475C395.104 230.475 396.08 230.263 396.979 229.853L426.611 216.416Z" stroke="#00D959" stroke-width="5" stroke-linecap="round" stroke-linejoin="round"/>
<path d="M428.611 213.237V233.921" stroke="#00D959" stroke-width="5" stroke-linecap="round" stroke-linejoin="round"/>
<path d="M373.419 221.855V233.921C373.419 236.664 375.599 239.294 379.481 241.234C383.362 243.173 388.627 244.263 394.116 244.263C399.605 244.263 404.87 243.173 408.751 241.234C412.633 239.294 414.813 236.664 414.813 233.921V221.855" stroke="#00D959" stroke-width="5" stroke-linecap="round" stroke-linejoin="round"/>
<path d="M241.729 28.1627L249.229 19.1627C249.229 21.9024 249.429 27.9378 250.229 30.1627M252.229 20.1627C259.562 16.4961 273.829 8.16274 272.229 4.16274C270.229 -0.837262 252.229 11.6627 251.229 15.6627M244.229 18.6626C241.895 16.8293 237.529 12.6626 238.729 10.6626C240.229 8.1626 244.729 13.1626 245.729 15.1626M238.729 32.1628C220.065 34 217.929 45.8628 214.729 56.6628C210.729 70.1628 224.065 88.5 233.565 90.5C243.065 92.5 264.729 88.1628 270.229 79.6628C275.729 71.1628 276.229 59.6628 273.229 49.6628C270.229 39.6628 249.729 29.1628 238.729 32.1628ZM245.229 57.1627L230.729 48.6627L237.729 64.1627L230.229 77.6627L245.229 67.6627L260.729 77.6627L251.229 60.6627L258.229 48.6627L245.229 57.1627Z" stroke="#00D959" stroke-width="5" stroke-linecap="round" stroke-linejoin="round"/>
<path d="M131.533 244.369H120.571C119.29 244.369 118.062 244.878 117.156 245.783C116.251 246.688 115.742 247.915 115.742 249.195V260.15" stroke="#00D959" stroke-width="4" stroke-linecap="round" stroke-linejoin="round"/>
<path d="M96.425 216.233V220.238C96.425 222.158 97.1882 224 98.5467 225.357C99.9052 226.715 101.748 227.477 103.669 227.477C104.95 227.477 106.178 227.986 107.084 228.891C107.989 229.796 108.498 231.024 108.498 232.303C108.498 234.958 110.671 237.129 113.327 237.129C114.608 237.129 115.836 236.621 116.742 235.716C117.648 234.811 118.156 233.583 118.156 232.303C118.156 229.649 120.33 227.477 122.986 227.477H130.64" stroke="#00D959" stroke-width="4" stroke-linecap="round" stroke-linejoin="round"/>
<path d="M106.084 261.139V251.608C106.084 250.328 105.575 249.1 104.669 248.195C103.763 247.29 102.535 246.782 101.254 246.782C99.9736 246.782 98.7452 246.273 97.8396 245.368C96.9339 244.463 96.4252 243.236 96.4252 241.956V239.543C96.4252 238.263 95.9164 237.035 95.0107 236.13C94.1051 235.225 92.8767 234.717 91.596 234.717H84.4729" stroke="#00D959" stroke-width="4" stroke-linecap="round" stroke-linejoin="round"/>
<path d="M108.498 261.26C121.833 261.26 132.644 250.457 132.644 237.13C132.644 223.803 121.833 213 108.498 213C95.1626 213 84.3521 223.803 84.3521 237.13C84.3521 250.457 95.1626 261.26 108.498 261.26Z" stroke="#00D959" stroke-width="4" stroke-linecap="round" stroke-linejoin="round"/>
</svg>
